<svg  xmlns="http://www.w3.org/2000/svg" xmlns:xlink="http://www.w3.org/1999/xlink" viewBox="0 0 41.29 30"><defs><style>.b88a23d3-9836-46d9-b7bf-2453bd00922b{fill:url(#f78c8f73-7d81-4893-b63b-8192a92fac58);}.f4a4e0de-32bd-4314-af38-dbec099ed609{fill:url(#a0a86339-276d-4137-8ee4-6dfd315afffc);}.bd592fa1-bb5d-4ae0-9a85-4571442973a7{fill:none;}.a425893e-aeac-4e94-9c94-a9e87fe6f3f4{isolation:isolate;}.be8b995d-8dec-47c0-b502-db642ef20551{mix-blend-mode:screen;}.bf9c1c38-6b94-408a-a682-b0044e6a963f{fill:url(#e61b471d-64fd-4960-a029-71f8dd505cee);}.f1427f56-6bd7-4fca-b88a-4cd6e98d5aa9{mask:url(#a34061a5-948f-4eb9-b8f3-52b33b51d3fc);}.ed5b7cff-6b2d-44ed-b576-bca934375147{opacity:0.21;}.eb593201-7de2-4dc7-a1ae-e936e24dac09{clip-path:url(#a5be5fe4-bd69-4b5c-818e-78269b012fdd);}.a0646d4c-eb71-4f8c-b44e-ce4b9d23d995{mix-blend-mode:soft-light;}.a4cafda9-e732-4e53-baf2-32010b81147e{opacity:0.2;}.fcc3b196-8eb2-4aff-99c9-ac7d4e8d9efd{fill:#fff;}.be63b8b9-14d9-4050-9ea0-6e5dd5872273{opacity:0.59;}.abd26130-5239-49e3-a512-65e4e17feaf0{opacity:0.34;}.bb6324ed-b695-4ffa-b60f-bbae067b8a5c{opacity:0.31;}.e2976488-ca96-46d1-961f-05ffff9c6caa{opacity:0.55;}.be3642b3-8dd1-4686-bc33-0accda711276{opacity:0.25;}.b54a96c8-d8c9-4dcf-98b6-655318ce612e{opacity:0.33;}.e00af02e-7686-4733-b297-61f9c9ae22f1{opacity:0.35;}.aa83b00d-7231-45a0-8f0d-b327a46df0ea{opacity:0.37;}.b206dd5c-649e-4669-b6a5-dc6775d5dbea{opacity:0.3;}.bad3fb69-2333-4770-9c45-ef0129520a69{opacity:0.29;}.b606ff3b-e48e-4e36-a081-6b22dcac5268{opacity:0.58;}.b3601613-809c-4179-8549-b145583a6c40{opacity:0.32;}.b32f66fe-375a-4c1b-b113-560407d689f5{opacity:0.47;}.f3ea202e-688b-41e5-ae97-1ec0de359145{opacity:0.39;}.f5672df0-6c4e-4c8b-b9f9-439c3fce55ad{opacity:0.5;}.e8be5c00-b375-41c9-85ae-7dc34ec339fc{opacity:0.44;}.bcec92d4-6a3b-4389-877e-3642071236e7{opacity:0.52;}.a0a868bd-b12d-41b2-9f49-8677822e8116{opacity:0.23;}.a6aec90a-b39d-4638-8a0c-026fa8c17a32{opacity:0.45;}.af494bb7-94e1-414d-b3eb-1bda5020baca{opacity:0.53;}.b4fe5058-9390-419e-a574-fd185f42b20a{opacity:0.54;}.b4233e05-3fa9-42d7-82bb-2e82862ef794{opacity:0.41;}.b84df28c-bcee-4570-888b-0cc6428f8c29{opacity:0.24;}.f01c15ad-5148-4752-8ba8-10f1e2ec07b7{opacity:0.27;}.bba612f3-da98-4e5f-8818-f370b88d253f{opacity:0.48;}.ac74821e-ef79-4c0e-87c1-f82b1e9cfc54{opacity:0.28;}.a0a4def8-70bb-4e04-b59a-c51576b6982e{opacity:0.22;}.b0a8b85a-0d2b-47b3-83a9-6395bd043c75{opacity:0.4;}.b15a6766-9ebd-403f-9b03-b58c9bddcf1a{opacity:0.43;}.b9f4e99c-cc22-4c35-bc25-c0770f8227fd{opacity:0.36;}.f7f7e7c9-6c9d-4831-8714-83f5de589a41{opacity:0.51;}.a6fb92b2-8987-4344-9fc4-3e89768b3117{opacity:0.38;}.a7fb9e4f-b82f-455e-9ab5-0af46d317e7f{opacity:0.49;}.aa357c4b-e98d-47de-be8e-87c68790648c,.b7122370-b856-4b90-8876-2dc9bb3ce143{opacity:0.42;}.e8771f7a-4b0c-4434-bf18-bce913b4f2f7{opacity:0.26;}.ba9f9503-eb7e-45d0-a4ac-8ec1171536fa{opacity:0.57;}.b6f3264a-a281-45ff-a2d9-89d85e3a99de{opacity:0.6;}.b02e1410-6c3f-41b0-a611-e2ca2e7fb180{mask:url(#bec914af-1ce4-4677-947e-e334e6ad2621);}.adfdd74e-15a0-4c06-90fc-1817f9385581,.b7122370-b856-4b90-8876-2dc9bb3ce143,.e20ebe66-cfe8-48f3-bb4a-7bc144981d05{mix-blend-mode:overlay;}.adfdd74e-15a0-4c06-90fc-1817f9385581{opacity:0.19;}.a4467c55-97d1-447c-8eea-024279319238{clip-path:url(#b2f4af70-ff66-4945-b34c-6b3ff29e4026);}</style><radialGradient id="f78c8f73-7d81-4893-b63b-8192a92fac58" cx="20.62" cy="15.01" r="18.43" gradientUnits="userSpaceOnUse"><stop offset="0" stop-color="#fff"/><stop offset="0.05" stop-color="#e8e8e8"/><stop offset="0.2" stop-color="#ababab"/><stop offset="0.35" stop-color="#777"/><stop offset="0.5" stop-color="#4c4c4c"/><stop offset="0.64" stop-color="#2b2b2b"/><stop offset="0.77" stop-color="#131313"/><stop offset="0.9" stop-color="#050505"/><stop offset="1"/></radialGradient><radialGradient id="a0a86339-276d-4137-8ee4-6dfd315afffc" cx="20.73" cy="15" r="18.48" gradientUnits="userSpaceOnUse"><stop offset="0" stop-color="#fff"/><stop offset="0.09" stop-color="#f7f7f7"/><stop offset="0.22" stop-color="#e3e3e3"/><stop offset="0.38" stop-color="silver"/><stop offset="0.56" stop-color="#919191"/><stop offset="0.76" stop-color="#545454"/><stop offset="0.97" stop-color="#0b0b0b"/><stop offset="1"/></radialGradient><linearGradient id="e61b471d-64fd-4960-a029-71f8dd505cee" x1="20.65" y1="143.68" x2="20.65" y2="113.68" gradientTransform="matrix(1, 0, 0, -1, 0, 143.68)" gradientUnits="userSpaceOnUse"><stop offset="0" stop-color="#0382df"/><stop offset="1" stop-color="#003094"/></linearGradient><mask id="a34061a5-948f-4eb9-b8f3-52b33b51d3fc" x="-1.6" y="-0.83" width="44.5" height="31.65" maskUnits="userSpaceOnUse"><rect class="b88a23d3-9836-46d9-b7bf-2453bd00922b" x="-0.41" y="-0.39" width="42.06" height="30.81"/></mask><clipPath id="a5be5fe4-bd69-4b5c-818e-78269b012fdd"><rect class="bd592fa1-bb5d-4ae0-9a85-4571442973a7" width="41.29" height="30"/></clipPath><mask id="bec914af-1ce4-4677-947e-e334e6ad2621" x="-0.36" y="-0.44" width="69.94" height="30.88" maskUnits="userSpaceOnUse"><rect class="f4a4e0de-32bd-4314-af38-dbec099ed609" x="-0.36" y="-0.44" width="42.19" height="30.88"/></mask><clipPath id="b2f4af70-ff66-4945-b34c-6b3ff29e4026"><rect class="bd592fa1-bb5d-4ae0-9a85-4571442973a7" width="41.29" height="30" transform="translate(41.29 30) rotate(180)"/></clipPath></defs><g class="a425893e-aeac-4e94-9c94-a9e87fe6f3f4"><g id="f95346c5-6274-4240-a5c5-75d5747c564c" data-name="Layer 1"><g class="be8b995d-8dec-47c0-b502-db642ef20551"><rect class="bf9c1c38-6b94-408a-a682-b0044e6a963f" width="41.29" height="30"/></g><g class="f1427f56-6bd7-4fca-b88a-4cd6e98d5aa9"><g class="ed5b7cff-6b2d-44ed-b576-bca934375147"><g class="eb593201-7de2-4dc7-a1ae-e936e24dac09"><g class="a0646d4c-eb71-4f8c-b44e-ce4b9d23d995"><g class="a4cafda9-e732-4e53-baf2-32010b81147e"><polygon class="fcc3b196-8eb2-4aff-99c9-ac7d4e8d9efd" points="1.3 1.69 1.3 0.01 -0.15 -0.82 -1.6 0.01 -1.6 1.69 -0.15 2.53 1.3 1.69"/></g><g class="be63b8b9-14d9-4050-9ea0-6e5dd5872273"><polygon class="fcc3b196-8eb2-4aff-99c9-ac7d4e8d9efd" points="4.27 1.69 4.27 0.01 2.82 -0.82 1.37 0.01 1.37 1.69 2.82 2.53 4.27 1.69"/></g><g class="abd26130-5239-49e3-a512-65e4e17feaf0"><polygon class="fcc3b196-8eb2-4aff-99c9-ac7d4e8d9efd" points="7.24 1.69 7.24 0.01 5.79 -0.82 4.34 0.01 4.34 1.69 5.79 2.53 7.24 1.69"/></g><g class="bb6324ed-b695-4ffa-b60f-bbae067b8a5c"><polygon class="fcc3b196-8eb2-4aff-99c9-ac7d4e8d9efd" points="10.21 1.69 10.21 0.01 8.76 -0.82 7.31 0.01 7.31 1.69 8.76 2.53 10.21 1.69"/></g><g class="e2976488-ca96-46d1-961f-05ffff9c6caa"><polygon class="fcc3b196-8eb2-4aff-99c9-ac7d4e8d9efd" points="13.18 1.69 13.18 0.01 11.73 -0.82 10.28 0.01 10.28 1.69 11.73 2.53 13.18 1.69"/></g><g class="be3642b3-8dd1-4686-bc33-0accda711276"><polygon class="fcc3b196-8eb2-4aff-99c9-ac7d4e8d9efd" points="16.16 1.69 16.16 0.01 14.7 -0.82 13.25 0.01 13.25 1.69 14.7 2.53 16.16 1.69"/></g><g class="b54a96c8-d8c9-4dcf-98b6-655318ce612e"><polygon class="fcc3b196-8eb2-4aff-99c9-ac7d4e8d9efd" points="19.13 1.69 19.13 0.01 17.68 -0.82 16.23 0.01 16.23 1.69 17.68 2.53 19.13 1.69"/></g><g class="e00af02e-7686-4733-b297-61f9c9ae22f1"><polygon class="fcc3b196-8eb2-4aff-99c9-ac7d4e8d9efd" points="22.1 1.69 22.1 0.01 20.65 -0.82 19.2 0.01 19.2 1.69 20.65 2.53 22.1 1.69"/></g><g class="aa83b00d-7231-45a0-8f0d-b327a46df0ea"><polygon class="fcc3b196-8eb2-4aff-99c9-ac7d4e8d9efd" points="25.07 1.69 25.07 0.01 23.62 -0.82 22.17 0.01 22.17 1.69 23.62 2.53 25.07 1.69"/></g><g class="b206dd5c-649e-4669-b6a5-dc6775d5dbea"><polygon class="fcc3b196-8eb2-4aff-99c9-ac7d4e8d9efd" points="28.04 1.69 28.04 0.01 26.59 -0.82 25.14 0.01 25.14 1.69 26.59 2.53 28.04 1.69"/></g><g class="bad3fb69-2333-4770-9c45-ef0129520a69"><polygon class="fcc3b196-8eb2-4aff-99c9-ac7d4e8d9efd" points="31.01 1.69 31.01 0.01 29.56 -0.82 28.11 0.01 28.11 1.69 29.56 2.53 31.01 1.69"/></g><g class="aa83b00d-7231-45a0-8f0d-b327a46df0ea"><polygon class="fcc3b196-8eb2-4aff-99c9-ac7d4e8d9efd" points="33.98 1.69 33.98 0.01 32.53 -0.82 31.08 0.01 31.08 1.69 32.53 2.53 33.98 1.69"/></g><g class="b606ff3b-e48e-4e36-a081-6b22dcac5268"><polygon class="fcc3b196-8eb2-4aff-99c9-ac7d4e8d9efd" points="36.95 1.69 36.95 0.01 35.5 -0.82 34.05 0.01 34.05 1.69 35.5 2.53 36.95 1.69"/></g><g class="b3601613-809c-4179-8549-b145583a6c40"><polygon class="fcc3b196-8eb2-4aff-99c9-ac7d4e8d9efd" points="39.93 1.69 39.93 0.01 38.48 -0.82 37.02 0.01 37.02 1.69 38.48 2.53 39.93 1.69"/></g><g class="b32f66fe-375a-4c1b-b113-560407d689f5"><polygon class="fcc3b196-8eb2-4aff-99c9-ac7d4e8d9efd" points="42.9 1.69 42.9 0.01 41.45 -0.82 39.99 0.01 39.99 1.69 41.45 2.53 42.9 1.69"/></g><g class="f3ea202e-688b-41e5-ae97-1ec0de359145"><polygon class="fcc3b196-8eb2-4aff-99c9-ac7d4e8d9efd" points="2.79 4.26 2.79 2.58 1.33 1.75 -0.12 2.58 -0.12 4.26 1.33 5.1 2.79 4.26"/></g><g class="f5672df0-6c4e-4c8b-b9f9-439c3fce55ad"><polygon class="fcc3b196-8eb2-4aff-99c9-ac7d4e8d9efd" points="5.76 4.26 5.76 2.58 4.3 1.75 2.85 2.58 2.85 4.26 4.3 5.1 5.76 4.26"/></g><g class="e8be5c00-b375-41c9-85ae-7dc34ec339fc"><polygon class="fcc3b196-8eb2-4aff-99c9-ac7d4e8d9efd" points="8.73 4.26 8.73 2.58 7.28 1.75 5.83 2.58 5.83 4.26 7.28 5.1 8.73 4.26"/></g><g class="bcec92d4-6a3b-4389-877e-3642071236e7"><polygon class="fcc3b196-8eb2-4aff-99c9-ac7d4e8d9efd" points="11.7 4.26 11.7 2.58 10.25 1.75 8.8 2.58 8.8 4.26 10.25 5.1 11.7 4.26"/></g><g class="e2976488-ca96-46d1-961f-05ffff9c6caa"><polygon class="fcc3b196-8eb2-4aff-99c9-ac7d4e8d9efd" points="14.67 4.26 14.67 2.58 13.22 1.75 11.77 2.58 11.77 4.26 13.22 5.1 14.67 4.26"/></g><g class="e2976488-ca96-46d1-961f-05ffff9c6caa"><polygon class="fcc3b196-8eb2-4aff-99c9-ac7d4e8d9efd" points="17.64 4.26 17.64 2.58 16.19 1.75 14.74 2.58 14.74 4.26 16.19 5.1 17.64 4.26"/></g><g class="a0a868bd-b12d-41b2-9f49-8677822e8116"><polygon class="fcc3b196-8eb2-4aff-99c9-ac7d4e8d9efd" points="20.61 4.26 20.61 2.58 19.16 1.75 17.71 2.58 17.71 4.26 19.16 5.1 20.61 4.26"/></g><g class="b54a96c8-d8c9-4dcf-98b6-655318ce612e"><polygon class="fcc3b196-8eb2-4aff-99c9-ac7d4e8d9efd" points="23.58 4.26 23.58 2.58 22.13 1.75 20.68 2.58 20.68 4.26 22.13 5.1 23.58 4.26"/></g><g class="a6aec90a-b39d-4638-8a0c-026fa8c17a32"><polygon class="fcc3b196-8eb2-4aff-99c9-ac7d4e8d9efd" points="26.55 4.26 26.55 2.58 25.1 1.75 23.65 2.58 23.65 4.26 25.1 5.1 26.55 4.26"/></g><g class="abd26130-5239-49e3-a512-65e4e17feaf0"><polygon class="fcc3b196-8eb2-4aff-99c9-ac7d4e8d9efd" points="29.53 4.26 29.53 2.58 28.07 1.75 26.62 2.58 26.62 4.26 28.07 5.1 29.53 4.26"/></g><g class="b32f66fe-375a-4c1b-b113-560407d689f5"><polygon class="fcc3b196-8eb2-4aff-99c9-ac7d4e8d9efd" points="32.5 4.26 32.5 2.58 31.05 1.75 29.59 2.58 29.59 4.26 31.05 5.1 32.5 4.26"/></g><g class="e8be5c00-b375-41c9-85ae-7dc34ec339fc"><polygon class="fcc3b196-8eb2-4aff-99c9-ac7d4e8d9efd" points="35.47 4.26 35.47 2.58 34.02 1.75 32.57 2.58 32.57 4.26 34.02 5.1 35.47 4.26"/></g><g class="a4cafda9-e732-4e53-baf2-32010b81147e"><polygon class="fcc3b196-8eb2-4aff-99c9-ac7d4e8d9efd" points="38.44 4.26 38.44 2.58 36.99 1.75 35.54 2.58 35.54 4.26 36.99 5.1 38.44 4.26"/></g><g class="b3601613-809c-4179-8549-b145583a6c40"><polygon class="fcc3b196-8eb2-4aff-99c9-ac7d4e8d9efd" points="41.41 4.26 41.41 2.58 39.96 1.75 38.51 2.58 38.51 4.26 39.96 5.1 41.41 4.26"/></g><g class="af494bb7-94e1-414d-b3eb-1bda5020baca"><polygon class="fcc3b196-8eb2-4aff-99c9-ac7d4e8d9efd" points="1.3 6.83 1.3 5.16 -0.15 4.32 -1.6 5.16 -1.6 6.83 -0.15 7.67 1.3 6.83"/></g><g class="b4fe5058-9390-419e-a574-fd185f42b20a"><polygon class="fcc3b196-8eb2-4aff-99c9-ac7d4e8d9efd" points="4.27 6.83 4.27 5.16 2.82 4.32 1.37 5.16 1.37 6.83 2.82 7.67 4.27 6.83"/></g><g class="f3ea202e-688b-41e5-ae97-1ec0de359145"><polygon class="fcc3b196-8eb2-4aff-99c9-ac7d4e8d9efd" points="7.24 6.83 7.24 5.16 5.79 4.32 4.34 5.16 4.34 6.83 5.79 7.67 7.24 6.83"/></g><g class="b4233e05-3fa9-42d7-82bb-2e82862ef794"><polygon class="fcc3b196-8eb2-4aff-99c9-ac7d4e8d9efd" points="10.21 6.83 10.21 5.16 8.76 4.32 7.31 5.16 7.31 6.83 8.76 7.67 10.21 6.83"/></g><g class="b4fe5058-9390-419e-a574-fd185f42b20a"><polygon class="fcc3b196-8eb2-4aff-99c9-ac7d4e8d9efd" points="13.18 6.83 13.18 5.16 11.73 4.32 10.28 5.16 10.28 6.83 11.73 7.67 13.18 6.83"/></g><g class="b84df28c-bcee-4570-888b-0cc6428f8c29"><polygon class="fcc3b196-8eb2-4aff-99c9-ac7d4e8d9efd" points="16.16 6.83 16.16 5.16 14.7 4.32 13.25 5.16 13.25 6.83 14.7 7.67 16.16 6.83"/></g><g class="f01c15ad-5148-4752-8ba8-10f1e2ec07b7"><polygon class="fcc3b196-8eb2-4aff-99c9-ac7d4e8d9efd" points="19.13 6.83 19.13 5.16 17.68 4.32 16.23 5.16 16.23 6.83 17.68 7.67 19.13 6.83"/></g><g class="b3601613-809c-4179-8549-b145583a6c40"><polygon class="fcc3b196-8eb2-4aff-99c9-ac7d4e8d9efd" points="22.1 6.83 22.1 5.16 20.65 4.32 19.2 5.16 19.2 6.83 20.65 7.67 22.1 6.83"/></g><g class="bba612f3-da98-4e5f-8818-f370b88d253f"><polygon class="fcc3b196-8eb2-4aff-99c9-ac7d4e8d9efd" points="25.07 6.83 25.07 5.16 23.62 4.32 22.17 5.16 22.17 6.83 23.62 7.67 25.07 6.83"/></g><g class="ac74821e-ef79-4c0e-87c1-f82b1e9cfc54"><polygon class="fcc3b196-8eb2-4aff-99c9-ac7d4e8d9efd" points="28.04 6.83 28.04 5.16 26.59 4.32 25.14 5.16 25.14 6.83 26.59 7.67 28.04 6.83"/></g><g class="f3ea202e-688b-41e5-ae97-1ec0de359145"><polygon class="fcc3b196-8eb2-4aff-99c9-ac7d4e8d9efd" points="31.01 6.83 31.01 5.16 29.56 4.32 28.11 5.16 28.11 6.83 29.56 7.67 31.01 6.83"/></g><g class="be63b8b9-14d9-4050-9ea0-6e5dd5872273"><polygon class="fcc3b196-8eb2-4aff-99c9-ac7d4e8d9efd" points="33.98 6.83 33.98 5.16 32.53 4.32 31.08 5.16 31.08 6.83 32.53 7.67 33.98 6.83"/></g><g class="aa83b00d-7231-45a0-8f0d-b327a46df0ea"><polygon class="fcc3b196-8eb2-4aff-99c9-ac7d4e8d9efd" points="36.95 6.83 36.95 5.16 35.5 4.32 34.05 5.16 34.05 6.83 35.5 7.67 36.95 6.83"/></g><g class="a0a4def8-70bb-4e04-b59a-c51576b6982e"><polygon class="fcc3b196-8eb2-4aff-99c9-ac7d4e8d9efd" points="39.93 6.83 39.93 5.16 38.48 4.32 37.02 5.16 37.02 6.83 38.48 7.67 39.93 6.83"/></g><g class="f01c15ad-5148-4752-8ba8-10f1e2ec07b7"><polygon class="fcc3b196-8eb2-4aff-99c9-ac7d4e8d9efd" points="42.9 6.83 42.9 5.16 41.45 4.32 39.99 5.16 39.99 6.83 41.45 7.67 42.9 6.83"/></g><g class="b4233e05-3fa9-42d7-82bb-2e82862ef794"><polygon class="fcc3b196-8eb2-4aff-99c9-ac7d4e8d9efd" points="2.79 9.41 2.79 7.73 1.33 6.89 -0.12 7.73 -0.12 9.41 1.33 10.24 2.79 9.41"/></g><g class="b4fe5058-9390-419e-a574-fd185f42b20a"><polygon class="fcc3b196-8eb2-4aff-99c9-ac7d4e8d9efd" points="5.76 9.41 5.76 7.73 4.3 6.89 2.85 7.73 2.85 9.41 4.3 10.24 5.76 9.41"/></g><g class="b0a8b85a-0d2b-47b3-83a9-6395bd043c75"><polygon class="fcc3b196-8eb2-4aff-99c9-ac7d4e8d9efd" points="8.73 9.41 8.73 7.73 7.28 6.89 5.83 7.73 5.83 9.41 7.28 10.24 8.73 9.41"/></g><g class="b15a6766-9ebd-403f-9b03-b58c9bddcf1a"><polygon class="fcc3b196-8eb2-4aff-99c9-ac7d4e8d9efd" points="11.7 9.41 11.7 7.73 10.25 6.89 8.8 7.73 8.8 9.41 10.25 10.24 11.7 9.41"/></g><g class="b15a6766-9ebd-403f-9b03-b58c9bddcf1a"><polygon class="fcc3b196-8eb2-4aff-99c9-ac7d4e8d9efd" points="14.67 9.41 14.67 7.73 13.22 6.89 11.77 7.73 11.77 9.41 13.22 10.24 14.67 9.41"/></g><g class="b606ff3b-e48e-4e36-a081-6b22dcac5268"><polygon class="fcc3b196-8eb2-4aff-99c9-ac7d4e8d9efd" points="17.64 9.41 17.64 7.73 16.19 6.89 14.74 7.73 14.74 9.41 16.19 10.24 17.64 9.41"/></g><g class="b3601613-809c-4179-8549-b145583a6c40"><polygon class="fcc3b196-8eb2-4aff-99c9-ac7d4e8d9efd" points="20.61 9.41 20.61 7.73 19.16 6.89 17.71 7.73 17.71 9.41 19.16 10.24 20.61 9.41"/></g><g class="b54a96c8-d8c9-4dcf-98b6-655318ce612e"><polygon class="fcc3b196-8eb2-4aff-99c9-ac7d4e8d9efd" points="23.58 9.41 23.58 7.73 22.13 6.89 20.68 7.73 20.68 9.41 22.13 10.24 23.58 9.41"/></g><g class="b9f4e99c-cc22-4c35-bc25-c0770f8227fd"><polygon class="fcc3b196-8eb2-4aff-99c9-ac7d4e8d9efd" points="26.55 9.41 26.55 7.73 25.1 6.89 23.65 7.73 23.65 9.41 25.1 10.24 26.55 9.41"/></g><g class="b9f4e99c-cc22-4c35-bc25-c0770f8227fd"><polygon class="fcc3b196-8eb2-4aff-99c9-ac7d4e8d9efd" points="29.53 9.41 29.53 7.73 28.07 6.89 26.62 7.73 26.62 9.41 28.07 10.24 29.53 9.41"/></g><g class="f3ea202e-688b-41e5-ae97-1ec0de359145"><polygon class="fcc3b196-8eb2-4aff-99c9-ac7d4e8d9efd" points="32.5 9.41 32.5 7.73 31.05 6.89 29.59 7.73 29.59 9.41 31.05 10.24 32.5 9.41"/></g><g class="b32f66fe-375a-4c1b-b113-560407d689f5"><polygon class="fcc3b196-8eb2-4aff-99c9-ac7d4e8d9efd" points="35.47 9.41 35.47 7.73 34.02 6.89 32.57 7.73 32.57 9.41 34.02 10.24 35.47 9.41"/></g><g class="abd26130-5239-49e3-a512-65e4e17feaf0"><polygon class="fcc3b196-8eb2-4aff-99c9-ac7d4e8d9efd" points="38.44 9.41 38.44 7.73 36.99 6.89 35.54 7.73 35.54 9.41 36.99 10.24 38.44 9.41"/></g><g class="f7f7e7c9-6c9d-4831-8714-83f5de589a41"><polygon class="fcc3b196-8eb2-4aff-99c9-ac7d4e8d9efd" points="41.41 9.41 41.41 7.73 39.96 6.89 38.51 7.73 38.51 9.41 39.96 10.24 41.41 9.41"/></g><g class="b54a96c8-d8c9-4dcf-98b6-655318ce612e"><polygon class="fcc3b196-8eb2-4aff-99c9-ac7d4e8d9efd" points="1.3 11.98 1.3 10.3 -0.15 9.46 -1.6 10.3 -1.6 11.98 -0.15 12.82 1.3 11.98"/></g><g class="f01c15ad-5148-4752-8ba8-10f1e2ec07b7"><polygon class="fcc3b196-8eb2-4aff-99c9-ac7d4e8d9efd" points="4.27 11.98 4.27 10.3 2.82 9.46 1.37 10.3 1.37 11.98 2.82 12.82 4.27 11.98"/></g><g class="f5672df0-6c4e-4c8b-b9f9-439c3fce55ad"><polygon class="fcc3b196-8eb2-4aff-99c9-ac7d4e8d9efd" points="7.24 11.98 7.24 10.3 5.79 9.46 4.34 10.3 4.34 11.98 5.79 12.82 7.24 11.98"/></g><g class="e2976488-ca96-46d1-961f-05ffff9c6caa"><polygon class="fcc3b196-8eb2-4aff-99c9-ac7d4e8d9efd" points="10.21 11.98 10.21 10.3 8.76 9.46 7.31 10.3 7.31 11.98 8.76 12.82 10.21 11.98"/></g><g class="a6fb92b2-8987-4344-9fc4-3e89768b3117"><polygon class="fcc3b196-8eb2-4aff-99c9-ac7d4e8d9efd" points="13.18 11.98 13.18 10.3 11.73 9.46 10.28 10.3 10.28 11.98 11.73 12.82 13.18 11.98"/></g><g class="f5672df0-6c4e-4c8b-b9f9-439c3fce55ad"><polygon class="fcc3b196-8eb2-4aff-99c9-ac7d4e8d9efd" points="16.16 11.98 16.16 10.3 14.7 9.46 13.25 10.3 13.25 11.98 14.7 12.82 16.16 11.98"/></g><g class="bb6324ed-b695-4ffa-b60f-bbae067b8a5c"><polygon class="fcc3b196-8eb2-4aff-99c9-ac7d4e8d9efd" points="19.13 11.98 19.13 10.3 17.68 9.46 16.23 10.3 16.23 11.98 17.68 12.82 19.13 11.98"/></g><g class="a6fb92b2-8987-4344-9fc4-3e89768b3117"><polygon class="fcc3b196-8eb2-4aff-99c9-ac7d4e8d9efd" points="22.1 11.98 22.1 10.3 20.65 9.46 19.2 10.3 19.2 11.98 20.65 12.82 22.1 11.98"/></g><g class="b54a96c8-d8c9-4dcf-98b6-655318ce612e"><polygon class="fcc3b196-8eb2-4aff-99c9-ac7d4e8d9efd" points="25.07 11.98 25.07 10.3 23.62 9.46 22.17 10.3 22.17 11.98 23.62 12.82 25.07 11.98"/></g><g class="a4cafda9-e732-4e53-baf2-32010b81147e"><polygon class="fcc3b196-8eb2-4aff-99c9-ac7d4e8d9efd" points="28.04 11.98 28.04 10.3 26.59 9.46 25.14 10.3 25.14 11.98 26.59 12.82 28.04 11.98"/></g><g class="a0a868bd-b12d-41b2-9f49-8677822e8116"><polygon class="fcc3b196-8eb2-4aff-99c9-ac7d4e8d9efd" points="31.01 11.98 31.01 10.3 29.56 9.46 28.11 10.3 28.11 11.98 29.56 12.82 31.01 11.98"/></g><g class="e00af02e-7686-4733-b297-61f9c9ae22f1"><polygon class="fcc3b196-8eb2-4aff-99c9-ac7d4e8d9efd" points="33.98 11.98 33.98 10.3 32.53 9.46 31.08 10.3 31.08 11.98 32.53 12.82 33.98 11.98"/></g><g class="b3601613-809c-4179-8549-b145583a6c40"><polygon class="fcc3b196-8eb2-4aff-99c9-ac7d4e8d9efd" points="36.95 11.98 36.95 10.3 35.5 9.46 34.05 10.3 34.05 11.98 35.5 12.82 36.95 11.98"/></g><g class="b9f4e99c-cc22-4c35-bc25-c0770f8227fd"><polygon class="fcc3b196-8eb2-4aff-99c9-ac7d4e8d9efd" points="39.93 11.98 39.93 10.3 38.48 9.46 37.02 10.3 37.02 11.98 38.48 12.82 39.93 11.98"/></g><g class="b0a8b85a-0d2b-47b3-83a9-6395bd043c75"><polygon class="fcc3b196-8eb2-4aff-99c9-ac7d4e8d9efd" points="42.9 11.98 42.9 10.3 41.45 9.46 39.99 10.3 39.99 11.98 41.45 12.82 42.9 11.98"/></g><g class="a7fb9e4f-b82f-455e-9ab5-0af46d317e7f"><polygon class="fcc3b196-8eb2-4aff-99c9-ac7d4e8d9efd" points="2.79 14.55 2.79 12.88 1.33 12.04 -0.12 12.88 -0.12 14.55 1.33 15.39 2.79 14.55"/></g><g class="be3642b3-8dd1-4686-bc33-0accda711276"><polygon class="fcc3b196-8eb2-4aff-99c9-ac7d4e8d9efd" points="5.76 14.55 5.76 12.88 4.3 12.04 2.85 12.88 2.85 14.55 4.3 15.39 5.76 14.55"/></g><g class="f7f7e7c9-6c9d-4831-8714-83f5de589a41"><polygon class="fcc3b196-8eb2-4aff-99c9-ac7d4e8d9efd" points="8.73 14.55 8.73 12.88 7.28 12.04 5.83 12.88 5.83 14.55 7.28 15.39 8.73 14.55"/></g><g class="b4233e05-3fa9-42d7-82bb-2e82862ef794"><polygon class="fcc3b196-8eb2-4aff-99c9-ac7d4e8d9efd" points="11.7 14.55 11.7 12.88 10.25 12.04 8.8 12.88 8.8 14.55 10.25 15.39 11.7 14.55"/></g><g class="a6fb92b2-8987-4344-9fc4-3e89768b3117"><polygon class="fcc3b196-8eb2-4aff-99c9-ac7d4e8d9efd" points="14.67 14.55 14.67 12.88 13.22 12.04 11.77 12.88 11.77 14.55 13.22 15.39 14.67 14.55"/></g><g class="a6fb92b2-8987-4344-9fc4-3e89768b3117"><polygon class="fcc3b196-8eb2-4aff-99c9-ac7d4e8d9efd" points="17.64 14.55 17.64 12.88 16.19 12.04 14.74 12.88 14.74 14.55 16.19 15.39 17.64 14.55"/></g><g class="b54a96c8-d8c9-4dcf-98b6-655318ce612e"><polygon class="fcc3b196-8eb2-4aff-99c9-ac7d4e8d9efd" points="20.61 14.55 20.61 12.88 19.16 12.04 17.71 12.88 17.71 14.55 19.16 15.39 20.61 14.55"/></g><g class="b4233e05-3fa9-42d7-82bb-2e82862ef794"><polygon class="fcc3b196-8eb2-4aff-99c9-ac7d4e8d9efd" points="23.58 14.55 23.58 12.88 22.13 12.04 20.68 12.88 20.68 14.55 22.13 15.39 23.58 14.55"/></g><g class="a0a4def8-70bb-4e04-b59a-c51576b6982e"><polygon class="fcc3b196-8eb2-4aff-99c9-ac7d4e8d9efd" points="26.55 14.55 26.55 12.88 25.1 12.04 23.65 12.88 23.65 14.55 25.1 15.39 26.55 14.55"/></g><g class="b9f4e99c-cc22-4c35-bc25-c0770f8227fd"><polygon class="fcc3b196-8eb2-4aff-99c9-ac7d4e8d9efd" points="29.53 14.55 29.53 12.88 28.07 12.04 26.62 12.88 26.62 14.55 28.07 15.39 29.53 14.55"/></g><g class="a6aec90a-b39d-4638-8a0c-026fa8c17a32"><polygon class="fcc3b196-8eb2-4aff-99c9-ac7d4e8d9efd" points="32.5 14.55 32.5 12.88 31.05 12.04 29.59 12.88 29.59 14.55 31.05 15.39 32.5 14.55"/></g><g class="aa83b00d-7231-45a0-8f0d-b327a46df0ea"><polygon class="fcc3b196-8eb2-4aff-99c9-ac7d4e8d9efd" points="35.47 14.55 35.47 12.88 34.02 12.04 32.57 12.88 32.57 14.55 34.02 15.39 35.47 14.55"/></g><g class="b9f4e99c-cc22-4c35-bc25-c0770f8227fd"><polygon class="fcc3b196-8eb2-4aff-99c9-ac7d4e8d9efd" points="38.44 14.55 38.44 12.88 36.99 12.04 35.54 12.88 35.54 14.55 36.99 15.39 38.44 14.55"/></g><g class="b84df28c-bcee-4570-888b-0cc6428f8c29"><polygon class="fcc3b196-8eb2-4aff-99c9-ac7d4e8d9efd" points="41.41 14.55 41.41 12.88 39.96 12.04 38.51 12.88 38.51 14.55 39.96 15.39 41.41 14.55"/></g><g class="b84df28c-bcee-4570-888b-0cc6428f8c29"><polygon class="fcc3b196-8eb2-4aff-99c9-ac7d4e8d9efd" points="1.3 17.12 1.3 15.45 -0.15 14.61 -1.6 15.45 -1.6 17.12 -0.15 17.96 1.3 17.12"/></g><g class="e8be5c00-b375-41c9-85ae-7dc34ec339fc"><polygon class="fcc3b196-8eb2-4aff-99c9-ac7d4e8d9efd" points="4.27 17.12 4.27 15.45 2.82 14.61 1.37 15.45 1.37 17.12 2.82 17.96 4.27 17.12"/></g><g class="e2976488-ca96-46d1-961f-05ffff9c6caa"><polygon class="fcc3b196-8eb2-4aff-99c9-ac7d4e8d9efd" points="7.24 17.12 7.24 15.45 5.79 14.61 4.34 15.45 4.34 17.12 5.79 17.96 7.24 17.12"/></g><g class="bcec92d4-6a3b-4389-877e-3642071236e7"><polygon class="fcc3b196-8eb2-4aff-99c9-ac7d4e8d9efd" points="10.21 17.12 10.21 15.45 8.76 14.61 7.31 15.45 7.31 17.12 8.76 17.96 10.21 17.12"/></g><g class="b3601613-809c-4179-8549-b145583a6c40"><polygon class="fcc3b196-8eb2-4aff-99c9-ac7d4e8d9efd" points="13.18 17.12 13.18 15.45 11.73 14.61 10.28 15.45 10.28 17.12 11.73 17.96 13.18 17.12"/></g><g class="b54a96c8-d8c9-4dcf-98b6-655318ce612e"><polygon class="fcc3b196-8eb2-4aff-99c9-ac7d4e8d9efd" points="16.16 17.12 16.16 15.45 14.7 14.61 13.25 15.45 13.25 17.12 14.7 17.96 16.16 17.12"/></g><g class="b54a96c8-d8c9-4dcf-98b6-655318ce612e"><polygon class="fcc3b196-8eb2-4aff-99c9-ac7d4e8d9efd" points="19.13 17.12 19.13 15.45 17.68 14.61 16.23 15.45 16.23 17.12 17.68 17.96 19.13 17.12"/></g><g class="aa357c4b-e98d-47de-be8e-87c68790648c"><polygon class="fcc3b196-8eb2-4aff-99c9-ac7d4e8d9efd" points="22.1 17.12 22.1 15.45 20.65 14.61 19.2 15.45 19.2 17.12 20.65 17.96 22.1 17.12"/></g><g class="e2976488-ca96-46d1-961f-05ffff9c6caa"><polygon class="fcc3b196-8eb2-4aff-99c9-ac7d4e8d9efd" points="25.07 17.12 25.07 15.45 23.62 14.61 22.17 15.45 22.17 17.12 23.62 17.96 25.07 17.12"/></g><g class="e8771f7a-4b0c-4434-bf18-bce913b4f2f7"><polygon class="fcc3b196-8eb2-4aff-99c9-ac7d4e8d9efd" points="28.04 17.12 28.04 15.45 26.59 14.61 25.14 15.45 25.14 17.12 26.59 17.96 28.04 17.12"/></g><g class="a6fb92b2-8987-4344-9fc4-3e89768b3117"><polygon class="fcc3b196-8eb2-4aff-99c9-ac7d4e8d9efd" points="31.01 17.12 31.01 15.45 29.56 14.61 28.11 15.45 28.11 17.12 29.56 17.96 31.01 17.12"/></g><g class="b9f4e99c-cc22-4c35-bc25-c0770f8227fd"><polygon class="fcc3b196-8eb2-4aff-99c9-ac7d4e8d9efd" points="33.98 17.12 33.98 15.45 32.53 14.61 31.08 15.45 31.08 17.12 32.53 17.96 33.98 17.12"/></g><g class="ba9f9503-eb7e-45d0-a4ac-8ec1171536fa"><polygon class="fcc3b196-8eb2-4aff-99c9-ac7d4e8d9efd" points="36.95 17.12 36.95 15.45 35.5 14.61 34.05 15.45 34.05 17.12 35.5 17.96 36.95 17.12"/></g><g class="a0a4def8-70bb-4e04-b59a-c51576b6982e"><polygon class="fcc3b196-8eb2-4aff-99c9-ac7d4e8d9efd" points="39.93 17.12 39.93 15.45 38.48 14.61 37.02 15.45 37.02 17.12 38.48 17.96 39.93 17.12"/></g><g class="bcec92d4-6a3b-4389-877e-3642071236e7"><polygon class="fcc3b196-8eb2-4aff-99c9-ac7d4e8d9efd" points="42.9 17.12 42.9 15.45 41.45 14.61 39.99 15.45 39.99 17.12 41.45 17.96 42.9 17.12"/></g><g class="b32f66fe-375a-4c1b-b113-560407d689f5"><polygon class="fcc3b196-8eb2-4aff-99c9-ac7d4e8d9efd" points="2.79 19.7 2.79 18.02 1.33 17.18 -0.12 18.02 -0.12 19.7 1.33 20.53 2.79 19.7"/></g><g class="aa83b00d-7231-45a0-8f0d-b327a46df0ea"><polygon class="fcc3b196-8eb2-4aff-99c9-ac7d4e8d9efd" points="5.76 19.7 5.76 18.02 4.3 17.18 2.85 18.02 2.85 19.7 4.3 20.53 5.76 19.7"/></g><g class="f3ea202e-688b-41e5-ae97-1ec0de359145"><polygon class="fcc3b196-8eb2-4aff-99c9-ac7d4e8d9efd" points="8.73 19.7 8.73 18.02 7.28 17.18 5.83 18.02 5.83 19.7 7.28 20.53 8.73 19.7"/></g><g class="b206dd5c-649e-4669-b6a5-dc6775d5dbea"><polygon class="fcc3b196-8eb2-4aff-99c9-ac7d4e8d9efd" points="11.7 19.7 11.7 18.02 10.25 17.18 8.8 18.02 8.8 19.7 10.25 20.53 11.7 19.7"/></g><g class="abd26130-5239-49e3-a512-65e4e17feaf0"><polygon class="fcc3b196-8eb2-4aff-99c9-ac7d4e8d9efd" points="14.67 19.7 14.67 18.02 13.22 17.18 11.77 18.02 11.77 19.7 13.22 20.53 14.67 19.7"/></g><g class="f3ea202e-688b-41e5-ae97-1ec0de359145"><polygon class="fcc3b196-8eb2-4aff-99c9-ac7d4e8d9efd" points="17.64 19.7 17.64 18.02 16.19 17.18 14.74 18.02 14.74 19.7 16.19 20.53 17.64 19.7"/></g><g class="bcec92d4-6a3b-4389-877e-3642071236e7"><polygon class="fcc3b196-8eb2-4aff-99c9-ac7d4e8d9efd" points="20.61 19.7 20.61 18.02 19.16 17.18 17.71 18.02 17.71 19.7 19.16 20.53 20.61 19.7"/></g><g class="b84df28c-bcee-4570-888b-0cc6428f8c29"><polygon class="fcc3b196-8eb2-4aff-99c9-ac7d4e8d9efd" points="23.58 19.7 23.58 18.02 22.13 17.18 20.68 18.02 20.68 19.7 22.13 20.53 23.58 19.7"/></g><g class="f3ea202e-688b-41e5-ae97-1ec0de359145"><polygon class="fcc3b196-8eb2-4aff-99c9-ac7d4e8d9efd" points="26.55 19.7 26.55 18.02 25.1 17.18 23.65 18.02 23.65 19.7 25.1 20.53 26.55 19.7"/></g><g class="ed5b7cff-6b2d-44ed-b576-bca934375147"><polygon class="fcc3b196-8eb2-4aff-99c9-ac7d4e8d9efd" points="29.53 19.7 29.53 18.02 28.07 17.18 26.62 18.02 26.62 19.7 28.07 20.53 29.53 19.7"/></g><g class="abd26130-5239-49e3-a512-65e4e17feaf0"><polygon class="fcc3b196-8eb2-4aff-99c9-ac7d4e8d9efd" points="32.5 19.7 32.5 18.02 31.05 17.18 29.59 18.02 29.59 19.7 31.05 20.53 32.5 19.7"/></g><g class="bad3fb69-2333-4770-9c45-ef0129520a69"><polygon class="fcc3b196-8eb2-4aff-99c9-ac7d4e8d9efd" points="35.47 19.7 35.47 18.02 34.02 17.18 32.57 18.02 32.57 19.7 34.02 20.53 35.47 19.7"/></g><g class="b206dd5c-649e-4669-b6a5-dc6775d5dbea"><polygon class="fcc3b196-8eb2-4aff-99c9-ac7d4e8d9efd" points="38.44 19.7 38.44 18.02 36.99 17.18 35.54 18.02 35.54 19.7 36.99 20.53 38.44 19.7"/></g><g class="b6f3264a-a281-45ff-a2d9-89d85e3a99de"><polygon class="fcc3b196-8eb2-4aff-99c9-ac7d4e8d9efd" points="41.41 19.7 41.41 18.02 39.96 17.18 38.51 18.02 38.51 19.7 39.96 20.53 41.41 19.7"/></g><g class="a6fb92b2-8987-4344-9fc4-3e89768b3117"><polygon class="fcc3b196-8eb2-4aff-99c9-ac7d4e8d9efd" points="1.3 22.27 1.3 20.59 -0.15 19.76 -1.6 20.59 -1.6 22.27 -0.15 23.11 1.3 22.27"/></g><g class="ac74821e-ef79-4c0e-87c1-f82b1e9cfc54"><polygon class="fcc3b196-8eb2-4aff-99c9-ac7d4e8d9efd" points="4.27 22.27 4.27 20.59 2.82 19.76 1.37 20.59 1.37 22.27 2.82 23.11 4.27 22.27"/></g><g class="f7f7e7c9-6c9d-4831-8714-83f5de589a41"><polygon class="fcc3b196-8eb2-4aff-99c9-ac7d4e8d9efd" points="7.24 22.27 7.24 20.59 5.79 19.76 4.34 20.59 4.34 22.27 5.79 23.11 7.24 22.27"/></g><g class="b6f3264a-a281-45ff-a2d9-89d85e3a99de"><polygon class="fcc3b196-8eb2-4aff-99c9-ac7d4e8d9efd" points="10.21 22.27 10.21 20.59 8.76 19.76 7.31 20.59 7.31 22.27 8.76 23.11 10.21 22.27"/></g><g class="b6f3264a-a281-45ff-a2d9-89d85e3a99de"><polygon class="fcc3b196-8eb2-4aff-99c9-ac7d4e8d9efd" points="13.18 22.27 13.18 20.59 11.73 19.76 10.28 20.59 10.28 22.27 11.73 23.11 13.18 22.27"/></g><g class="bb6324ed-b695-4ffa-b60f-bbae067b8a5c"><polygon class="fcc3b196-8eb2-4aff-99c9-ac7d4e8d9efd" points="16.16 22.27 16.16 20.59 14.7 19.76 13.25 20.59 13.25 22.27 14.7 23.11 16.16 22.27"/></g><g class="be3642b3-8dd1-4686-bc33-0accda711276"><polygon class="fcc3b196-8eb2-4aff-99c9-ac7d4e8d9efd" points="19.13 22.27 19.13 20.59 17.68 19.76 16.23 20.59 16.23 22.27 17.68 23.11 19.13 22.27"/></g><g class="bad3fb69-2333-4770-9c45-ef0129520a69"><polygon class="fcc3b196-8eb2-4aff-99c9-ac7d4e8d9efd" points="22.1 22.27 22.1 20.59 20.65 19.76 19.2 20.59 19.2 22.27 20.65 23.11 22.1 22.27"/></g><g class="a0a868bd-b12d-41b2-9f49-8677822e8116"><polygon class="fcc3b196-8eb2-4aff-99c9-ac7d4e8d9efd" points="25.07 22.27 25.07 20.59 23.62 19.76 22.17 20.59 22.17 22.27 23.62 23.11 25.07 22.27"/></g><g class="f01c15ad-5148-4752-8ba8-10f1e2ec07b7"><polygon class="fcc3b196-8eb2-4aff-99c9-ac7d4e8d9efd" points="28.04 22.27 28.04 20.59 26.59 19.76 25.14 20.59 25.14 22.27 26.59 23.11 28.04 22.27"/></g><g class="ed5b7cff-6b2d-44ed-b576-bca934375147"><polygon class="fcc3b196-8eb2-4aff-99c9-ac7d4e8d9efd" points="31.01 22.27 31.01 20.59 29.56 19.76 28.11 20.59 28.11 22.27 29.56 23.11 31.01 22.27"/></g><g class="f3ea202e-688b-41e5-ae97-1ec0de359145"><polygon class="fcc3b196-8eb2-4aff-99c9-ac7d4e8d9efd" points="33.98 22.27 33.98 20.59 32.53 19.76 31.08 20.59 31.08 22.27 32.53 23.11 33.98 22.27"/></g><g class="ba9f9503-eb7e-45d0-a4ac-8ec1171536fa"><polygon class="fcc3b196-8eb2-4aff-99c9-ac7d4e8d9efd" points="36.95 22.27 36.95 20.59 35.5 19.76 34.05 20.59 34.05 22.27 35.5 23.11 36.95 22.27"/></g><g class="bcec92d4-6a3b-4389-877e-3642071236e7"><polygon class="fcc3b196-8eb2-4aff-99c9-ac7d4e8d9efd" points="39.93 22.27 39.93 20.59 38.48 19.76 37.02 20.59 37.02 22.27 38.48 23.11 39.93 22.27"/></g><g class="b206dd5c-649e-4669-b6a5-dc6775d5dbea"><polygon class="fcc3b196-8eb2-4aff-99c9-ac7d4e8d9efd" points="42.9 22.27 42.9 20.59 41.45 19.76 39.99 20.59 39.99 22.27 41.45 23.11 42.9 22.27"/></g><g class="be3642b3-8dd1-4686-bc33-0accda711276"><polygon class="fcc3b196-8eb2-4aff-99c9-ac7d4e8d9efd" points="2.79 24.84 2.79 23.17 1.33 22.33 -0.12 23.17 -0.12 24.84 1.33 25.68 2.79 24.84"/></g><g class="e00af02e-7686-4733-b297-61f9c9ae22f1"><polygon class="fcc3b196-8eb2-4aff-99c9-ac7d4e8d9efd" points="5.76 24.84 5.76 23.17 4.3 22.33 2.85 23.17 2.85 24.84 4.3 25.68 5.76 24.84"/></g><g class="b4233e05-3fa9-42d7-82bb-2e82862ef794"><polygon class="fcc3b196-8eb2-4aff-99c9-ac7d4e8d9efd" points="8.73 24.84 8.73 23.17 7.28 22.33 5.83 23.17 5.83 24.84 7.28 25.68 8.73 24.84"/></g><g class="abd26130-5239-49e3-a512-65e4e17feaf0"><polygon class="fcc3b196-8eb2-4aff-99c9-ac7d4e8d9efd" points="11.7 24.84 11.7 23.17 10.25 22.33 8.8 23.17 8.8 24.84 10.25 25.68 11.7 24.84"/></g><g class="b9f4e99c-cc22-4c35-bc25-c0770f8227fd"><polygon class="fcc3b196-8eb2-4aff-99c9-ac7d4e8d9efd" points="14.67 24.84 14.67 23.17 13.22 22.33 11.77 23.17 11.77 24.84 13.22 25.68 14.67 24.84"/></g><g class="bad3fb69-2333-4770-9c45-ef0129520a69"><polygon class="fcc3b196-8eb2-4aff-99c9-ac7d4e8d9efd" points="17.64 24.84 17.64 23.17 16.19 22.33 14.74 23.17 14.74 24.84 16.19 25.68 17.64 24.84"/></g><g class="b4233e05-3fa9-42d7-82bb-2e82862ef794"><polygon class="fcc3b196-8eb2-4aff-99c9-ac7d4e8d9efd" points="20.61 24.84 20.61 23.17 19.16 22.33 17.71 23.17 17.71 24.84 19.16 25.68 20.61 24.84"/></g><g class="a0a868bd-b12d-41b2-9f49-8677822e8116"><polygon class="fcc3b196-8eb2-4aff-99c9-ac7d4e8d9efd" points="23.58 24.84 23.58 23.17 22.13 22.33 20.68 23.17 20.68 24.84 22.13 25.68 23.58 24.84"/></g><g class="a7fb9e4f-b82f-455e-9ab5-0af46d317e7f"><polygon class="fcc3b196-8eb2-4aff-99c9-ac7d4e8d9efd" points="26.55 24.84 26.55 23.17 25.1 22.33 23.65 23.17 23.65 24.84 25.1 25.68 26.55 24.84"/></g><g class="b9f4e99c-cc22-4c35-bc25-c0770f8227fd"><polygon class="fcc3b196-8eb2-4aff-99c9-ac7d4e8d9efd" points="29.53 24.84 29.53 23.17 28.07 22.33 26.62 23.17 26.62 24.84 28.07 25.68 29.53 24.84"/></g><g class="bba612f3-da98-4e5f-8818-f370b88d253f"><polygon class="fcc3b196-8eb2-4aff-99c9-ac7d4e8d9efd" points="32.5 24.84 32.5 23.17 31.05 22.33 29.59 23.17 29.59 24.84 31.05 25.68 32.5 24.84"/></g><g class="b0a8b85a-0d2b-47b3-83a9-6395bd043c75"><polygon class="fcc3b196-8eb2-4aff-99c9-ac7d4e8d9efd" points="35.47 24.84 35.47 23.17 34.02 22.33 32.57 23.17 32.57 24.84 34.02 25.68 35.47 24.84"/></g><g class="b32f66fe-375a-4c1b-b113-560407d689f5"><polygon class="fcc3b196-8eb2-4aff-99c9-ac7d4e8d9efd" points="38.44 24.84 38.44 23.17 36.99 22.33 35.54 23.17 35.54 24.84 36.99 25.68 38.44 24.84"/></g><g class="a7fb9e4f-b82f-455e-9ab5-0af46d317e7f"><polygon class="fcc3b196-8eb2-4aff-99c9-ac7d4e8d9efd" points="41.41 24.84 41.41 23.17 39.96 22.33 38.51 23.17 38.51 24.84 39.96 25.68 41.41 24.84"/></g><g class="f01c15ad-5148-4752-8ba8-10f1e2ec07b7"><polygon class="fcc3b196-8eb2-4aff-99c9-ac7d4e8d9efd" points="1.3 27.41 1.3 25.74 -0.15 24.9 -1.6 25.74 -1.6 27.41 -0.15 28.25 1.3 27.41"/></g><g class="b4233e05-3fa9-42d7-82bb-2e82862ef794"><polygon class="fcc3b196-8eb2-4aff-99c9-ac7d4e8d9efd" points="4.27 27.41 4.27 25.74 2.82 24.9 1.37 25.74 1.37 27.41 2.82 28.25 4.27 27.41"/></g><g class="f5672df0-6c4e-4c8b-b9f9-439c3fce55ad"><polygon class="fcc3b196-8eb2-4aff-99c9-ac7d4e8d9efd" points="7.24 27.41 7.24 25.74 5.79 24.9 4.34 25.74 4.34 27.41 5.79 28.25 7.24 27.41"/></g><g class="b206dd5c-649e-4669-b6a5-dc6775d5dbea"><polygon class="fcc3b196-8eb2-4aff-99c9-ac7d4e8d9efd" points="10.21 27.41 10.21 25.74 8.76 24.9 7.31 25.74 7.31 27.41 8.76 28.25 10.21 27.41"/></g><g class="f5672df0-6c4e-4c8b-b9f9-439c3fce55ad"><polygon class="fcc3b196-8eb2-4aff-99c9-ac7d4e8d9efd" points="13.18 27.41 13.18 25.74 11.73 24.9 10.28 25.74 10.28 27.41 11.73 28.25 13.18 27.41"/></g><g class="a0a4def8-70bb-4e04-b59a-c51576b6982e"><polygon class="fcc3b196-8eb2-4aff-99c9-ac7d4e8d9efd" points="16.16 27.41 16.16 25.74 14.7 24.9 13.25 25.74 13.25 27.41 14.7 28.25 16.16 27.41"/></g><g class="ed5b7cff-6b2d-44ed-b576-bca934375147"><polygon class="fcc3b196-8eb2-4aff-99c9-ac7d4e8d9efd" points="19.13 27.41 19.13 25.74 17.68 24.9 16.23 25.74 16.23 27.41 17.68 28.25 19.13 27.41"/></g><g class="f01c15ad-5148-4752-8ba8-10f1e2ec07b7"><polygon class="fcc3b196-8eb2-4aff-99c9-ac7d4e8d9efd" points="22.1 27.41 22.1 25.74 20.65 24.9 19.2 25.74 19.2 27.41 20.65 28.25 22.1 27.41"/></g><g class="b32f66fe-375a-4c1b-b113-560407d689f5"><polygon class="fcc3b196-8eb2-4aff-99c9-ac7d4e8d9efd" points="25.07 27.41 25.07 25.74 23.62 24.9 22.17 25.74 22.17 27.41 23.62 28.25 25.07 27.41"/></g><g class="a0a868bd-b12d-41b2-9f49-8677822e8116"><polygon class="fcc3b196-8eb2-4aff-99c9-ac7d4e8d9efd" points="28.04 27.41 28.04 25.74 26.59 24.9 25.14 25.74 25.14 27.41 26.59 28.25 28.04 27.41"/></g><g class="a4cafda9-e732-4e53-baf2-32010b81147e"><polygon class="fcc3b196-8eb2-4aff-99c9-ac7d4e8d9efd" points="31.01 27.41 31.01 25.74 29.56 24.9 28.11 25.74 28.11 27.41 29.56 28.25 31.01 27.41"/></g><g class="ac74821e-ef79-4c0e-87c1-f82b1e9cfc54"><polygon class="fcc3b196-8eb2-4aff-99c9-ac7d4e8d9efd" points="33.98 27.41 33.98 25.74 32.53 24.9 31.08 25.74 31.08 27.41 32.53 28.25 33.98 27.41"/></g><g class="b206dd5c-649e-4669-b6a5-dc6775d5dbea"><polygon class="fcc3b196-8eb2-4aff-99c9-ac7d4e8d9efd" points="36.95 27.41 36.95 25.74 35.5 24.9 34.05 25.74 34.05 27.41 35.5 28.25 36.95 27.41"/></g><g class="ba9f9503-eb7e-45d0-a4ac-8ec1171536fa"><polygon class="fcc3b196-8eb2-4aff-99c9-ac7d4e8d9efd" points="39.93 27.41 39.93 25.74 38.48 24.9 37.02 25.74 37.02 27.41 38.48 28.25 39.93 27.41"/></g><g class="af494bb7-94e1-414d-b3eb-1bda5020baca"><polygon class="fcc3b196-8eb2-4aff-99c9-ac7d4e8d9efd" points="42.9 27.41 42.9 25.74 41.45 24.9 39.99 25.74 39.99 27.41 41.45 28.25 42.9 27.41"/></g><g class="ed5b7cff-6b2d-44ed-b576-bca934375147"><polygon class="fcc3b196-8eb2-4aff-99c9-ac7d4e8d9efd" points="2.79 29.99 2.79 28.31 1.33 27.47 -0.12 28.31 -0.12 29.99 1.33 30.82 2.79 29.99"/></g><g class="b606ff3b-e48e-4e36-a081-6b22dcac5268"><polygon class="fcc3b196-8eb2-4aff-99c9-ac7d4e8d9efd" points="5.76 29.99 5.76 28.31 4.3 27.47 2.85 28.31 2.85 29.99 4.3 30.82 5.76 29.99"/></g><g class="b54a96c8-d8c9-4dcf-98b6-655318ce612e"><polygon class="fcc3b196-8eb2-4aff-99c9-ac7d4e8d9efd" points="8.73 29.99 8.73 28.31 7.28 27.47 5.83 28.31 5.83 29.99 7.28 30.82 8.73 29.99"/></g><g class="be3642b3-8dd1-4686-bc33-0accda711276"><polygon class="fcc3b196-8eb2-4aff-99c9-ac7d4e8d9efd" points="11.7 29.99 11.7 28.31 10.25 27.47 8.8 28.31 8.8 29.99 10.25 30.82 11.7 29.99"/></g><g class="b4233e05-3fa9-42d7-82bb-2e82862ef794"><polygon class="fcc3b196-8eb2-4aff-99c9-ac7d4e8d9efd" points="14.67 29.99 14.67 28.31 13.22 27.47 11.77 28.31 11.77 29.99 13.22 30.82 14.67 29.99"/></g><g class="b606ff3b-e48e-4e36-a081-6b22dcac5268"><polygon class="fcc3b196-8eb2-4aff-99c9-ac7d4e8d9efd" points="17.64 29.99 17.64 28.31 16.19 27.47 14.74 28.31 14.74 29.99 16.19 30.82 17.64 29.99"/></g><g class="f3ea202e-688b-41e5-ae97-1ec0de359145"><polygon class="fcc3b196-8eb2-4aff-99c9-ac7d4e8d9efd" points="20.61 29.99 20.61 28.31 19.16 27.47 17.71 28.31 17.71 29.99 19.16 30.82 20.61 29.99"/></g><g class="ba9f9503-eb7e-45d0-a4ac-8ec1171536fa"><polygon class="fcc3b196-8eb2-4aff-99c9-ac7d4e8d9efd" points="23.58 29.99 23.58 28.31 22.13 27.47 20.68 28.31 20.68 29.99 22.13 30.82 23.58 29.99"/></g><g class="af494bb7-94e1-414d-b3eb-1bda5020baca"><polygon class="fcc3b196-8eb2-4aff-99c9-ac7d4e8d9efd" points="26.55 29.99 26.55 28.31 25.1 27.47 23.65 28.31 23.65 29.99 25.1 30.82 26.55 29.99"/></g><g class="b9f4e99c-cc22-4c35-bc25-c0770f8227fd"><polygon class="fcc3b196-8eb2-4aff-99c9-ac7d4e8d9efd" points="29.53 29.99 29.53 28.31 28.07 27.47 26.62 28.31 26.62 29.99 28.07 30.82 29.53 29.99"/></g><g class="b54a96c8-d8c9-4dcf-98b6-655318ce612e"><polygon class="fcc3b196-8eb2-4aff-99c9-ac7d4e8d9efd" points="32.5 29.99 32.5 28.31 31.05 27.47 29.59 28.31 29.59 29.99 31.05 30.82 32.5 29.99"/></g><g class="b84df28c-bcee-4570-888b-0cc6428f8c29"><polygon class="fcc3b196-8eb2-4aff-99c9-ac7d4e8d9efd" points="35.47 29.99 35.47 28.31 34.02 27.47 32.57 28.31 32.57 29.99 34.02 30.82 35.47 29.99"/></g><g class="a7fb9e4f-b82f-455e-9ab5-0af46d317e7f"><polygon class="fcc3b196-8eb2-4aff-99c9-ac7d4e8d9efd" points="38.44 29.99 38.44 28.31 36.99 27.47 35.54 28.31 35.54 29.99 36.99 30.82 38.44 29.99"/></g><g class="b6f3264a-a281-45ff-a2d9-89d85e3a99de"><polygon class="fcc3b196-8eb2-4aff-99c9-ac7d4e8d9efd" points="41.41 29.99 41.41 28.31 39.96 27.47 38.51 28.31 38.51 29.99 39.96 30.82 41.41 29.99"/></g></g></g></g></g><g class="b02e1410-6c3f-41b0-a611-e2ca2e7fb180"><g class="b7122370-b856-4b90-8876-2dc9bb3ce143"><g class="eb593201-7de2-4dc7-a1ae-e936e24dac09"><path class="fcc3b196-8eb2-4aff-99c9-ac7d4e8d9efd" d="M48.11,22.94h0a.08.08,0,0,1-.08-.07l-.65-16.5-1,9.1a.08.08,0,0,1-.08.06h-1a.08.08,0,0,1-.08-.06L44.62,12l-1.27,6.31a.1.1,0,0,1-.08.06.08.08,0,0,1-.07-.07l-.77-5.25-.56,2.6a.1.1,0,0,1-.08.06.07.07,0,0,1-.07-.07l-.7-4.7-.29,9.44a.08.08,0,0,1-.07.08h0a.07.07,0,0,1-.07-.07L40,15.58h-.72a.07.07,0,0,1-.07-.07l-.34-2.24-.43,5a.08.08,0,0,1-.07.07h0a.07.07,0,0,1-.07-.06l-.68-4.94-.43,2.42a.09.09,0,0,1-.08.06h0a.07.07,0,0,1-.07-.07L36.66,11l-.8,11.78a.08.08,0,0,1-.08.07h0a.07.07,0,0,1-.07-.07l-.66-16-.94,8.83a.07.07,0,0,1-.07.07h-.87a.08.08,0,0,1-.08-.07l-.48-3.8-.67,7.63a.08.08,0,0,1-.08.07h0a.08.08,0,0,1-.07-.08V15.49h-1a.09.09,0,0,1-.07-.06l-.29-1.78-.39,5a.07.07,0,0,1-.07.07h0a.08.08,0,0,1-.08-.07l-.67-7.2-.53,4.24a.07.07,0,0,1-.07.07h0a.09.09,0,0,1-.08-.06l-.31-1.93-.5,3.93s0,.06-.07.06a.09.09,0,0,1-.08-.06L26.82,8.8l-.46,6.8a.07.07,0,0,1-.07.07h-.83a.08.08,0,0,1-.08-.07l-.3-1.89-.51,4.59a.07.07,0,0,1-.07.07.09.09,0,0,1-.08-.07L24,15.49h-.8a.09.09,0,0,1-.08-.06l-.43-3.59-.64,8.9a.08.08,0,0,1-.07.07.08.08,0,0,1-.08-.07l-.39-5.33H19.62a.09.09,0,0,1-.08-.08.08.08,0,0,1,.08-.07h2a.08.08,0,0,1,.08.07L22,19.69l.62-8.64a.08.08,0,0,1,.07-.07h0a.08.08,0,0,1,.08.07l.51,4.29h.81a.08.08,0,0,1,.07.07l.31,2.27.5-4.54a.06.06,0,0,1,.07-.06.08.08,0,0,1,.08.06l.38,2.38h.7l.51-7.69a.08.08,0,0,1,.08-.07h0a.07.07,0,0,1,.07.07l.81,9.11.48-3.76a.09.09,0,0,1,.07-.06h0a.09.09,0,0,1,.07.06l.31,1.92.54-4.4a.08.08,0,0,1,.08-.06h0a.07.07,0,0,1,.07.06l.66,7L30.35,13a.08.08,0,0,1,.07-.07h0a.08.08,0,0,1,.08.07l.38,2.33h1a.08.08,0,0,1,.08.08v2.32l.59-6.64A.07.07,0,0,1,32.6,11h0a.09.09,0,0,1,.08.06l.55,4.43H34l1-9.78a.08.08,0,0,1,.08-.07h0a.07.07,0,0,1,.07.07L35.8,21.4,36.58,10a.07.07,0,0,1,.07-.07h0a.08.08,0,0,1,.08.07l.43,5.14.42-2.32a.09.09,0,0,1,.07-.06h0a.09.09,0,0,1,.08.06l.65,4.74.42-5a.07.07,0,0,1,.07-.07h0a.08.08,0,0,1,.07.07l.42,2.81h.72a.09.09,0,0,1,.08.06l.45,3.86.27-9.25A.07.07,0,0,1,41,10h0a.07.07,0,0,1,.07.06l.77,5.13.56-2.61a.09.09,0,0,1,.08-.06h0a.07.07,0,0,1,.07.07l.77,5.23,1.26-6.28a.07.07,0,0,1,.07-.06h0a.09.09,0,0,1,.07.06l.64,3.81h.92l1.08-10a.08.08,0,0,1,.07-.07h0a.07.07,0,0,1,.07.07l.64,16.07L49,8.66A.07.07,0,0,1,49,8.59a.07.07,0,0,1,.08.06L50,15.31l.27-1.56a.07.07,0,0,1,.07-.07h0a.1.1,0,0,1,.08.07l.4,3,.34-3.09a.07.07,0,0,1,.07-.06.07.07,0,0,1,.08.05l.48,1.81h1a.08.08,0,0,1,.08.07l.28,1.69L54,12.4a.07.07,0,0,1,.07-.07s.07,0,.07.07l.43,3.22h.82l.74-2.75a.07.07,0,0,1,.08,0,.07.07,0,0,1,.07.06L56.74,16l.57-3.68a.08.08,0,0,1,.08-.07h0a.09.09,0,0,1,.07.06l.47,2.17.5-4.49A.07.07,0,0,1,58.5,10s.06,0,.07,0l.61,2.26L59.71,6a.08.08,0,0,1,.08-.07.07.07,0,0,1,.07.07l.74,15.87,1-7.73a.09.09,0,0,1,.08-.06h0s.07,0,.07.06l.28,1.7.46-2.55s0-.06.07-.06h0s.07,0,.07,0L63.06,15H69.5a.07.07,0,0,1,.07.07.07.07,0,0,1-.07.08H63a.07.07,0,0,1-.07-.06l-.37-1.39-.48,2.65a.08.08,0,0,1-.08.06h0a.07.07,0,0,1-.07-.06l-.26-1.62-1,8.06a.07.07,0,0,1-.07.07h0a.08.08,0,0,1-.08-.07L59.76,7.15l-.47,5.57a.07.07,0,0,1-.06.07h0a.08.08,0,0,1-.07,0l-.62-2.29L58,15a.08.08,0,0,1-.07.07h0a.09.09,0,0,1-.07-.06l-.48-2.22-.59,3.78a.07.07,0,0,1-.07.06h0a.08.08,0,0,1-.08-.06l-.47-3.3-.66,2.46a.08.08,0,0,1-.07,0h-1s-.07,0-.07-.06l-.37-2.8-.83,4.78a.08.08,0,0,1-.08.07h0a.08.08,0,0,1-.07-.07l-.34-2.07h-1a.08.08,0,0,1-.07,0l-.4-1.49-.36,3.3a.1.1,0,0,1-.08.07.07.07,0,0,1-.07-.06l-.42-3.13-.26,1.56a.08.08,0,0,1-.08.06s-.07,0-.07-.06l-.86-6.4-.87,13.45A.07.07,0,0,1,48.11,22.94Z"/></g></g></g><g class="b02e1410-6c3f-41b0-a611-e2ca2e7fb180"><g class="adfdd74e-15a0-4c06-90fc-1817f9385581"><g class="eb593201-7de2-4dc7-a1ae-e936e24dac09"><path class="fcc3b196-8eb2-4aff-99c9-ac7d4e8d9efd" d="M48.11,22.94h0a.08.08,0,0,1-.08-.07l-.65-16.5-1,9.1a.08.08,0,0,1-.08.06h-1a.08.08,0,0,1-.08-.06L44.62,12l-1.27,6.31a.1.1,0,0,1-.08.06.08.08,0,0,1-.07-.07l-.77-5.25-.56,2.6a.1.1,0,0,1-.08.06.07.07,0,0,1-.07-.07l-.7-4.7-.29,9.44a.08.08,0,0,1-.07.08h0a.07.07,0,0,1-.07-.07L40,15.58h-.72a.07.07,0,0,1-.07-.07l-.34-2.24-.43,5a.08.08,0,0,1-.07.07h0a.07.07,0,0,1-.07-.06l-.68-4.94-.43,2.42a.09.09,0,0,1-.08.06h0a.07.07,0,0,1-.07-.07L36.66,11l-.8,11.78a.08.08,0,0,1-.08.07h0a.07.07,0,0,1-.07-.07l-.66-16-.94,8.83a.07.07,0,0,1-.07.07h-.87a.08.08,0,0,1-.08-.07l-.48-3.8-.67,7.63a.08.08,0,0,1-.08.07h0a.08.08,0,0,1-.07-.08V15.49h-1a.09.09,0,0,1-.07-.06l-.29-1.78-.39,5a.07.07,0,0,1-.07.07h0a.08.08,0,0,1-.08-.07l-.67-7.2-.53,4.24a.07.07,0,0,1-.07.07h0a.09.09,0,0,1-.08-.06l-.31-1.93-.5,3.93s0,.06-.07.06a.09.09,0,0,1-.08-.06L26.82,8.8l-.46,6.8a.07.07,0,0,1-.07.07h-.83a.08.08,0,0,1-.08-.07l-.3-1.89-.51,4.59a.07.07,0,0,1-.07.07.09.09,0,0,1-.08-.07L24,15.49h-.8a.09.09,0,0,1-.08-.06l-.43-3.59-.64,8.9a.08.08,0,0,1-.07.07.08.08,0,0,1-.08-.07l-.39-5.33H19.62a.09.09,0,0,1-.08-.08.08.08,0,0,1,.08-.07h2a.08.08,0,0,1,.08.07L22,19.69l.62-8.64a.08.08,0,0,1,.07-.07h0a.08.08,0,0,1,.08.07l.51,4.29h.81a.08.08,0,0,1,.07.07l.31,2.27.5-4.54a.06.06,0,0,1,.07-.06.08.08,0,0,1,.08.06l.38,2.38h.7l.51-7.69a.08.08,0,0,1,.08-.07h0a.07.07,0,0,1,.07.07l.81,9.11.48-3.76a.09.09,0,0,1,.07-.06h0a.09.09,0,0,1,.07.06l.31,1.92.54-4.4a.08.08,0,0,1,.08-.06h0a.07.07,0,0,1,.07.06l.66,7L30.35,13a.08.08,0,0,1,.07-.07h0a.08.08,0,0,1,.08.07l.38,2.33h1a.08.08,0,0,1,.08.08v2.32l.59-6.64A.07.07,0,0,1,32.6,11h0a.09.09,0,0,1,.08.06l.55,4.43H34l1-9.78a.08.08,0,0,1,.08-.07h0a.07.07,0,0,1,.07.07L35.8,21.4,36.58,10a.07.07,0,0,1,.07-.07h0a.08.08,0,0,1,.08.07l.43,5.14.42-2.32a.09.09,0,0,1,.07-.06h0a.09.09,0,0,1,.08.06l.65,4.74.42-5a.07.07,0,0,1,.07-.07h0a.08.08,0,0,1,.07.07l.42,2.81h.72a.09.09,0,0,1,.08.06l.45,3.86.27-9.25A.07.07,0,0,1,41,10h0a.07.07,0,0,1,.07.06l.77,5.13.56-2.61a.09.09,0,0,1,.08-.06h0a.07.07,0,0,1,.07.07l.77,5.23,1.26-6.28a.07.07,0,0,1,.07-.06h0a.09.09,0,0,1,.07.06l.64,3.81h.92l1.08-10a.08.08,0,0,1,.07-.07h0a.07.07,0,0,1,.07.07l.64,16.07L49,8.66A.07.07,0,0,1,49,8.59a.07.07,0,0,1,.08.06L50,15.31l.27-1.56a.07.07,0,0,1,.07-.07h0a.1.1,0,0,1,.08.07l.4,3,.34-3.09a.07.07,0,0,1,.07-.06.07.07,0,0,1,.08.05l.48,1.81h1a.08.08,0,0,1,.08.07l.28,1.69L54,12.4a.07.07,0,0,1,.07-.07s.07,0,.07.07l.43,3.22h.82l.74-2.75a.07.07,0,0,1,.08,0,.07.07,0,0,1,.07.06L56.74,16l.57-3.68a.08.08,0,0,1,.08-.07h0a.09.09,0,0,1,.07.06l.47,2.17.5-4.49A.07.07,0,0,1,58.5,10s.06,0,.07,0l.61,2.26L59.71,6a.08.08,0,0,1,.08-.07.07.07,0,0,1,.07.07l.74,15.87,1-7.73a.09.09,0,0,1,.08-.06h0s.07,0,.07.06l.28,1.7.46-2.55s0-.06.07-.06h0s.07,0,.07,0L63.06,15H69.5a.07.07,0,0,1,.07.07.07.07,0,0,1-.07.08H63a.07.07,0,0,1-.07-.06l-.37-1.39-.48,2.65a.08.08,0,0,1-.08.06h0a.07.07,0,0,1-.07-.06l-.26-1.62-1,8.06a.07.07,0,0,1-.07.07h0a.08.08,0,0,1-.08-.07L59.76,7.15l-.47,5.57a.07.07,0,0,1-.06.07h0a.08.08,0,0,1-.07,0l-.62-2.29L58,15a.08.08,0,0,1-.07.07h0a.09.09,0,0,1-.07-.06l-.48-2.22-.59,3.78a.07.07,0,0,1-.07.06h0a.08.08,0,0,1-.08-.06l-.47-3.3-.66,2.46a.08.08,0,0,1-.07,0h-1s-.07,0-.07-.06l-.37-2.8-.83,4.78a.08.08,0,0,1-.08.07h0a.08.08,0,0,1-.07-.07l-.34-2.07h-1a.08.08,0,0,1-.07,0l-.4-1.49-.36,3.3a.1.1,0,0,1-.08.07.07.07,0,0,1-.07-.06l-.42-3.13-.26,1.56a.08.08,0,0,1-.08.06s-.07,0-.07-.06l-.86-6.4-.87,13.45A.07.07,0,0,1,48.11,22.94Z"/></g></g></g><g class="eb593201-7de2-4dc7-a1ae-e936e24dac09"><g class="a0646d4c-eb71-4f8c-b44e-ce4b9d23d995"><g class="b4233e05-3fa9-42d7-82bb-2e82862ef794"><polygon class="fcc3b196-8eb2-4aff-99c9-ac7d4e8d9efd" points="33.16 2.03 33.16 -0.42 31.04 -1.65 28.91 -0.42 28.91 2.03 31.04 3.26 33.16 2.03"/></g><g class="f5672df0-6c4e-4c8b-b9f9-439c3fce55ad"><polygon class="fcc3b196-8eb2-4aff-99c9-ac7d4e8d9efd" points="37.52 2.03 37.52 -0.42 35.39 -1.65 33.27 -0.42 33.27 2.03 35.39 3.26 37.52 2.03"/></g><g class="b6f3264a-a281-45ff-a2d9-89d85e3a99de"><polygon class="fcc3b196-8eb2-4aff-99c9-ac7d4e8d9efd" points="41.87 2.03 41.87 -0.42 39.74 -1.65 37.62 -0.42 37.62 2.03 39.74 3.26 41.87 2.03"/></g><g class="bb6324ed-b695-4ffa-b60f-bbae067b8a5c"><polygon class="fcc3b196-8eb2-4aff-99c9-ac7d4e8d9efd" points="35.34 5.8 35.34 3.34 33.22 2.12 31.09 3.34 31.09 5.8 33.22 7.02 35.34 5.8"/></g><g class="be3642b3-8dd1-4686-bc33-0accda711276"><polygon class="fcc3b196-8eb2-4aff-99c9-ac7d4e8d9efd" points="39.69 5.8 39.69 3.34 37.57 2.12 35.44 3.34 35.44 5.8 37.57 7.02 39.69 5.8"/></g><g class="bcec92d4-6a3b-4389-877e-3642071236e7"><polygon class="fcc3b196-8eb2-4aff-99c9-ac7d4e8d9efd" points="44.04 5.8 44.04 3.34 41.92 2.12 39.79 3.34 39.79 5.8 41.92 7.02 44.04 5.8"/></g></g></g><g class="a4467c55-97d1-447c-8eea-024279319238"><g class="a0646d4c-eb71-4f8c-b44e-ce4b9d23d995"><g class="f01c15ad-5148-4752-8ba8-10f1e2ec07b7"><polygon class="fcc3b196-8eb2-4aff-99c9-ac7d4e8d9efd" points="4.63 27.94 4.63 30.4 6.75 31.62 8.88 30.4 8.88 27.94 6.75 26.72 4.63 27.94"/></g><g class="b4233e05-3fa9-42d7-82bb-2e82862ef794"><polygon class="fcc3b196-8eb2-4aff-99c9-ac7d4e8d9efd" points="0.28 27.94 0.28 30.4 2.4 31.62 4.53 30.4 4.53 27.94 2.4 26.72 0.28 27.94"/></g><g class="f5672df0-6c4e-4c8b-b9f9-439c3fce55ad"><polygon class="fcc3b196-8eb2-4aff-99c9-ac7d4e8d9efd" points="-4.07 27.94 -4.07 30.4 -1.95 31.62 0.18 30.4 0.18 27.94 -1.95 26.72 -4.07 27.94"/></g><g class="b606ff3b-e48e-4e36-a081-6b22dcac5268"><polygon class="fcc3b196-8eb2-4aff-99c9-ac7d4e8d9efd" points="-1.9 24.18 -1.9 26.63 0.23 27.86 2.35 26.63 2.35 24.18 0.23 22.95 -1.9 24.18"/></g><g class="b4233e05-3fa9-42d7-82bb-2e82862ef794"><polygon class="fcc3b196-8eb2-4aff-99c9-ac7d4e8d9efd" points="4.63 20.41 4.63 22.86 6.75 24.09 8.88 22.86 8.88 20.41 6.75 19.18 4.63 20.41"/></g><g class="f5672df0-6c4e-4c8b-b9f9-439c3fce55ad"><polygon class="fcc3b196-8eb2-4aff-99c9-ac7d4e8d9efd" points="0.28 20.41 0.28 22.86 2.4 24.09 4.53 22.86 4.53 20.41 2.4 19.18 0.28 20.41"/></g><g class="b6f3264a-a281-45ff-a2d9-89d85e3a99de"><polygon class="fcc3b196-8eb2-4aff-99c9-ac7d4e8d9efd" points="-4.07 20.41 -4.07 22.86 -1.95 24.09 0.18 22.86 0.18 20.41 -1.95 19.18 -4.07 20.41"/></g><g class="bb6324ed-b695-4ffa-b60f-bbae067b8a5c"><polygon class="fcc3b196-8eb2-4aff-99c9-ac7d4e8d9efd" points="2.45 16.64 2.45 19.09 4.58 20.32 6.7 19.09 6.7 16.64 4.58 15.41 2.45 16.64"/></g><g class="be3642b3-8dd1-4686-bc33-0accda711276"><polygon class="fcc3b196-8eb2-4aff-99c9-ac7d4e8d9efd" points="-1.9 16.64 -1.9 19.09 0.23 20.32 2.35 19.09 2.35 16.64 0.23 15.41 -1.9 16.64"/></g></g></g><g class="eb593201-7de2-4dc7-a1ae-e936e24dac09"><g class="e20ebe66-cfe8-48f3-bb4a-7bc144981d05"><path class="fcc3b196-8eb2-4aff-99c9-ac7d4e8d9efd" d="M7.15.3a.07.07,0,1,0,.14,0,.07.07,0,1,0-.14,0Z"/><path class="fcc3b196-8eb2-4aff-99c9-ac7d4e8d9efd" d="M7.15,1.08a.07.07,0,0,0,.14,0,.07.07,0,1,0-.14,0Z"/><path class="fcc3b196-8eb2-4aff-99c9-ac7d4e8d9efd" d="M7.15,1.85a.07.07,0,1,0,.07-.07A.07.07,0,0,0,7.15,1.85Z"/><path class="fcc3b196-8eb2-4aff-99c9-ac7d4e8d9efd" d="M7.15,2.62a.07.07,0,1,0,.07-.07A.07.07,0,0,0,7.15,2.62Z"/><path class="fcc3b196-8eb2-4aff-99c9-ac7d4e8d9efd" d="M7.15,3.39a.07.07,0,1,0,.14,0,.07.07,0,1,0-.14,0Z"/><path class="fcc3b196-8eb2-4aff-99c9-ac7d4e8d9efd" d="M7.15,4.17a.07.07,0,1,0,.07-.07A.07.07,0,0,0,7.15,4.17Z"/><path class="fcc3b196-8eb2-4aff-99c9-ac7d4e8d9efd" d="M7.15,4.94a.07.07,0,1,0,.07-.07A.07.07,0,0,0,7.15,4.94Z"/><path class="fcc3b196-8eb2-4aff-99c9-ac7d4e8d9efd" d="M7.15,5.71a.07.07,0,1,0,.14,0,.07.07,0,0,0-.14,0Z"/><path class="fcc3b196-8eb2-4aff-99c9-ac7d4e8d9efd" d="M7.15,6.49a.07.07,0,1,0,.07-.07A.07.07,0,0,0,7.15,6.49Z"/><circle class="fcc3b196-8eb2-4aff-99c9-ac7d4e8d9efd" cx="7.22" cy="7.26" r="0.07"/><path class="fcc3b196-8eb2-4aff-99c9-ac7d4e8d9efd" d="M7.16,8s0,.07.06.07.06,0,.06-.07a.06.06,0,0,0-.12,0Z"/><path class="fcc3b196-8eb2-4aff-99c9-ac7d4e8d9efd" d="M7.16,8.81a.06.06,0,0,0,.12,0,.06.06,0,1,0-.12,0Z"/><path class="fcc3b196-8eb2-4aff-99c9-ac7d4e8d9efd" d="M7.16,9.58a.06.06,0,1,0,.06-.06A.06.06,0,0,0,7.16,9.58Z"/><circle class="fcc3b196-8eb2-4aff-99c9-ac7d4e8d9efd" cx="7.22" cy="10.35" r="0.05"/><circle class="fcc3b196-8eb2-4aff-99c9-ac7d4e8d9efd" cx="7.22" cy="11.13" r="0.05"/><path class="fcc3b196-8eb2-4aff-99c9-ac7d4e8d9efd" d="M7.17,11.9s0,0,0,0,0,0,0,0a.05.05,0,1,0-.1,0Z"/><path class="fcc3b196-8eb2-4aff-99c9-ac7d4e8d9efd" d="M7.18,12.67a0,0,0,0,0,.08,0,0,0,0,0,0-.08,0A0,0,0,0,0,7.18,12.67Z"/><path class="fcc3b196-8eb2-4aff-99c9-ac7d4e8d9efd" d="M7.18,13.44a0,0,0,0,0,.08,0s0,0,0,0S7.18,13.42,7.18,13.44Z"/><path class="fcc3b196-8eb2-4aff-99c9-ac7d4e8d9efd" d="M7.19,14.22a0,0,0,0,0,.06,0,0,0,0,0,0-.06,0A0,0,0,0,0,7.19,14.22Z"/><path class="fcc3b196-8eb2-4aff-99c9-ac7d4e8d9efd" d="M7.19,15a0,0,0,0,0,.06,0,0,0,0,0,0-.06,0Z"/><path class="fcc3b196-8eb2-4aff-99c9-ac7d4e8d9efd" d="M7.2,15.76s0,0,0,0,0,0,0,0l0,0Z"/><circle class="fcc3b196-8eb2-4aff-99c9-ac7d4e8d9efd" cx="7.22" cy="16.54" r="0.02"/><path class="fcc3b196-8eb2-4aff-99c9-ac7d4e8d9efd" d="M7.2,17.31a0,0,0,0,0,0,0,0,0,0,0,0,0,0,0,0,0,0,0,0,0Z"/><path class="fcc3b196-8eb2-4aff-99c9-ac7d4e8d9efd" d="M7.21,18.08s0,0,0,0,0,0,0,0h0Z"/><path class="fcc3b196-8eb2-4aff-99c9-ac7d4e8d9efd" d="M7.21,18.86h0Z"/><polygon class="fcc3b196-8eb2-4aff-99c9-ac7d4e8d9efd" points="7.22 19.63 7.22 19.63 7.22 19.63 7.22 19.63 7.22 19.63"/><path class="fcc3b196-8eb2-4aff-99c9-ac7d4e8d9efd" d="M6.34.3A.11.11,0,1,0,6.45.19.11.11,0,0,0,6.34.3Z"/><path class="fcc3b196-8eb2-4aff-99c9-ac7d4e8d9efd" d="M6.34,1.08a.11.11,0,0,0,.22,0,.11.11,0,0,0-.22,0Z"/><path class="fcc3b196-8eb2-4aff-99c9-ac7d4e8d9efd" d="M6.34,1.85a.11.11,0,1,0,.11-.11A.11.11,0,0,0,6.34,1.85Z"/><path class="fcc3b196-8eb2-4aff-99c9-ac7d4e8d9efd" d="M6.34,2.62a.11.11,0,1,0,.11-.11A.11.11,0,0,0,6.34,2.62Z"/><path class="fcc3b196-8eb2-4aff-99c9-ac7d4e8d9efd" d="M6.34,3.39a.11.11,0,1,0,.22,0,.11.11,0,0,0-.22,0Z"/><path class="fcc3b196-8eb2-4aff-99c9-ac7d4e8d9efd" d="M6.34,4.17a.11.11,0,1,0,.11-.11A.11.11,0,0,0,6.34,4.17Z"/><path class="fcc3b196-8eb2-4aff-99c9-ac7d4e8d9efd" d="M6.34,4.94a.11.11,0,1,0,.11-.11A.11.11,0,0,0,6.34,4.94Z"/><path class="fcc3b196-8eb2-4aff-99c9-ac7d4e8d9efd" d="M6.34,5.71a.11.11,0,1,0,.11-.11A.11.11,0,0,0,6.34,5.71Z"/><path class="fcc3b196-8eb2-4aff-99c9-ac7d4e8d9efd" d="M6.34,6.49a.11.11,0,1,0,.11-.11A.11.11,0,0,0,6.34,6.49Z"/><path class="fcc3b196-8eb2-4aff-99c9-ac7d4e8d9efd" d="M6.34,7.26a.11.11,0,0,0,.11.11.11.11,0,0,0,.1-.11.1.1,0,0,0-.1-.1A.1.1,0,0,0,6.34,7.26Z"/><circle class="fcc3b196-8eb2-4aff-99c9-ac7d4e8d9efd" cx="6.45" cy="8.03" r="0.1"/><path class="fcc3b196-8eb2-4aff-99c9-ac7d4e8d9efd" d="M6.35,8.81a.09.09,0,0,0,.1.09.09.09,0,0,0,.09-.09.09.09,0,0,0-.09-.1A.09.09,0,0,0,6.35,8.81Z"/><circle class="fcc3b196-8eb2-4aff-99c9-ac7d4e8d9efd" cx="6.45" cy="9.58" r="0.09"/><path class="fcc3b196-8eb2-4aff-99c9-ac7d4e8d9efd" d="M6.37,10.35a.07.07,0,0,0,.08.08.08.08,0,0,0,.08-.08.09.09,0,0,0-.08-.08A.08.08,0,0,0,6.37,10.35Z"/><path class="fcc3b196-8eb2-4aff-99c9-ac7d4e8d9efd" d="M6.37,11.13a.08.08,0,0,0,.08.07.07.07,0,0,0,.07-.07.07.07,0,0,0-.07-.08A.08.08,0,0,0,6.37,11.13Z"/><circle class="fcc3b196-8eb2-4aff-99c9-ac7d4e8d9efd" cx="6.45" cy="11.9" r="0.07"/><path class="fcc3b196-8eb2-4aff-99c9-ac7d4e8d9efd" d="M6.38,12.67s0,.06.07.06a.06.06,0,0,0,.06-.06.06.06,0,0,0-.06-.06A.07.07,0,0,0,6.38,12.67Z"/><path class="fcc3b196-8eb2-4aff-99c9-ac7d4e8d9efd" d="M6.39,13.44a.06.06,0,0,0,.06.06s0,0,0-.06a0,0,0,0,0,0,0A.06.06,0,0,0,6.39,13.44Z"/><circle class="fcc3b196-8eb2-4aff-99c9-ac7d4e8d9efd" cx="6.45" cy="14.22" r="0.05"/><path class="fcc3b196-8eb2-4aff-99c9-ac7d4e8d9efd" d="M6.4,15a0,0,0,0,0,0,0,0,0,0,0,0,0-.08A0,0,0,0,0,6.4,15Z"/><path class="fcc3b196-8eb2-4aff-99c9-ac7d4e8d9efd" d="M6.41,15.76a0,0,0,1,0,.08,0s0,0,0,0S6.41,15.74,6.41,15.76Z"/><path class="fcc3b196-8eb2-4aff-99c9-ac7d4e8d9efd" d="M6.41,16.54s0,0,0,0a0,0,0,0,0,0-.06S6.41,16.52,6.41,16.54Z"/><path class="fcc3b196-8eb2-4aff-99c9-ac7d4e8d9efd" d="M6.42,17.31a0,0,0,0,0,0,0s0,0,0,0,0,0,0,0A0,0,0,0,0,6.42,17.31Z"/><circle class="fcc3b196-8eb2-4aff-99c9-ac7d4e8d9efd" cx="6.45" cy="18.08" r="0.02"/><path class="fcc3b196-8eb2-4aff-99c9-ac7d4e8d9efd" d="M6.43,18.86h0v0Z"/><path class="fcc3b196-8eb2-4aff-99c9-ac7d4e8d9efd" d="M6.44,19.63a0,0,0,0,0,0,0h0Z"/><polygon class="fcc3b196-8eb2-4aff-99c9-ac7d4e8d9efd" points="6.45 20.4 6.45 20.41 6.45 20.4 6.45 20.4 6.45 20.4"/><circle class="fcc3b196-8eb2-4aff-99c9-ac7d4e8d9efd" cx="5.67" cy="0.3" r="0.11"/><circle class="fcc3b196-8eb2-4aff-99c9-ac7d4e8d9efd" cx="5.67" cy="1.08" r="0.11"/><path class="fcc3b196-8eb2-4aff-99c9-ac7d4e8d9efd" d="M5.56,1.85a.11.11,0,1,0,.11-.11A.11.11,0,0,0,5.56,1.85Z"/><path class="fcc3b196-8eb2-4aff-99c9-ac7d4e8d9efd" d="M5.56,2.62a.11.11,0,1,0,.11-.11A.11.11,0,0,0,5.56,2.62Z"/><path class="fcc3b196-8eb2-4aff-99c9-ac7d4e8d9efd" d="M5.56,3.39a.11.11,0,1,0,.22,0,.11.11,0,0,0-.22,0Z"/><circle class="fcc3b196-8eb2-4aff-99c9-ac7d4e8d9efd" cx="5.67" cy="4.17" r="0.11"/><path class="fcc3b196-8eb2-4aff-99c9-ac7d4e8d9efd" d="M5.56,4.94a.11.11,0,1,0,.11-.11A.11.11,0,0,0,5.56,4.94Z"/><path class="fcc3b196-8eb2-4aff-99c9-ac7d4e8d9efd" d="M5.56,5.71a.11.11,0,1,0,.11-.11A.11.11,0,0,0,5.56,5.71Z"/><path class="fcc3b196-8eb2-4aff-99c9-ac7d4e8d9efd" d="M5.56,6.49a.11.11,0,1,0,.11-.11A.11.11,0,0,0,5.56,6.49Z"/><path class="fcc3b196-8eb2-4aff-99c9-ac7d4e8d9efd" d="M5.57,7.26a.11.11,0,0,0,.1.11.11.11,0,0,0,.11-.11.1.1,0,0,0-.11-.1A.1.1,0,0,0,5.57,7.26Z"/><path class="fcc3b196-8eb2-4aff-99c9-ac7d4e8d9efd" d="M5.58,8a.09.09,0,0,0,.09.1.09.09,0,0,0,.1-.1.1.1,0,0,0-.1-.1A.1.1,0,0,0,5.58,8Z"/><path class="fcc3b196-8eb2-4aff-99c9-ac7d4e8d9efd" d="M5.58,8.81a.09.09,0,0,0,.09.09.09.09,0,0,0,.1-.09.09.09,0,0,0-.1-.1A.09.09,0,0,0,5.58,8.81Z"/><circle class="fcc3b196-8eb2-4aff-99c9-ac7d4e8d9efd" cx="5.67" cy="9.58" r="0.09"/><path class="fcc3b196-8eb2-4aff-99c9-ac7d4e8d9efd" d="M5.59,10.35a.08.08,0,0,0,.08.08.08.08,0,0,0,.09-.08.09.09,0,0,0-.09-.08A.09.09,0,0,0,5.59,10.35Z"/><circle class="fcc3b196-8eb2-4aff-99c9-ac7d4e8d9efd" cx="5.67" cy="11.13" r="0.07"/><path class="fcc3b196-8eb2-4aff-99c9-ac7d4e8d9efd" d="M5.61,11.9a.07.07,0,0,0,.06.07.07.07,0,0,0,0-.14A.07.07,0,0,0,5.61,11.9Z"/><path class="fcc3b196-8eb2-4aff-99c9-ac7d4e8d9efd" d="M5.61,12.67a.06.06,0,0,0,.06.06s.07,0,.07-.06a.07.07,0,0,0-.07-.06A.06.06,0,0,0,5.61,12.67Z"/><path class="fcc3b196-8eb2-4aff-99c9-ac7d4e8d9efd" d="M5.62,13.44s0,.06,0,.06a.06.06,0,0,0,.06-.06.06.06,0,0,0-.06,0A0,0,0,0,0,5.62,13.44Z"/><circle class="fcc3b196-8eb2-4aff-99c9-ac7d4e8d9efd" cx="5.67" cy="14.22" r="0.05"/><circle class="fcc3b196-8eb2-4aff-99c9-ac7d4e8d9efd" cx="5.67" cy="14.99" r="0.04"/><path class="fcc3b196-8eb2-4aff-99c9-ac7d4e8d9efd" d="M5.64,15.76s0,0,0,0,0,0,0,0,0,0,0,0A0,0,0,0,0,5.64,15.76Z"/><path class="fcc3b196-8eb2-4aff-99c9-ac7d4e8d9efd" d="M5.64,16.54a0,0,0,0,0,0,0s0,0,0,0,0,0,0,0A0,0,0,0,0,5.64,16.54Z"/><circle class="fcc3b196-8eb2-4aff-99c9-ac7d4e8d9efd" cx="5.67" cy="17.31" r="0.03"/><circle class="fcc3b196-8eb2-4aff-99c9-ac7d4e8d9efd" cx="5.67" cy="18.08" r="0.02"/><path class="fcc3b196-8eb2-4aff-99c9-ac7d4e8d9efd" d="M5.66,18.86h0l0,0Z"/><path class="fcc3b196-8eb2-4aff-99c9-ac7d4e8d9efd" d="M5.67,19.63h0a0,0,0,0,0,0,0h0Z"/><polygon class="fcc3b196-8eb2-4aff-99c9-ac7d4e8d9efd" points="5.67 20.4 5.67 20.41 5.68 20.4 5.67 20.4 5.67 20.4"/><path class="fcc3b196-8eb2-4aff-99c9-ac7d4e8d9efd" d="M4.79.3A.11.11,0,1,0,4.9.19.11.11,0,0,0,4.79.3Z"/><path class="fcc3b196-8eb2-4aff-99c9-ac7d4e8d9efd" d="M4.79,1.08a.11.11,0,0,0,.22,0,.11.11,0,0,0-.22,0Z"/><path class="fcc3b196-8eb2-4aff-99c9-ac7d4e8d9efd" d="M4.79,1.85a.11.11,0,1,0,.11-.11A.11.11,0,0,0,4.79,1.85Z"/><path class="fcc3b196-8eb2-4aff-99c9-ac7d4e8d9efd" d="M4.79,2.62a.11.11,0,1,0,.11-.11A.11.11,0,0,0,4.79,2.62Z"/><path class="fcc3b196-8eb2-4aff-99c9-ac7d4e8d9efd" d="M4.79,3.39a.11.11,0,1,0,.22,0,.11.11,0,0,0-.22,0Z"/><path class="fcc3b196-8eb2-4aff-99c9-ac7d4e8d9efd" d="M4.79,4.17a.11.11,0,1,0,.11-.11A.11.11,0,0,0,4.79,4.17Z"/><path class="fcc3b196-8eb2-4aff-99c9-ac7d4e8d9efd" d="M4.79,4.94a.11.11,0,1,0,.11-.11A.11.11,0,0,0,4.79,4.94Z"/><path class="fcc3b196-8eb2-4aff-99c9-ac7d4e8d9efd" d="M4.79,5.71A.11.11,0,1,0,4.9,5.6.11.11,0,0,0,4.79,5.71Z"/><path class="fcc3b196-8eb2-4aff-99c9-ac7d4e8d9efd" d="M4.79,6.49a.11.11,0,1,0,.11-.11A.11.11,0,0,0,4.79,6.49Z"/><path class="fcc3b196-8eb2-4aff-99c9-ac7d4e8d9efd" d="M4.8,7.26a.1.1,0,0,0,.1.11A.11.11,0,0,0,5,7.26a.1.1,0,0,0-.11-.1A.09.09,0,0,0,4.8,7.26Z"/><circle class="fcc3b196-8eb2-4aff-99c9-ac7d4e8d9efd" cx="4.9" cy="8.03" r="0.1"/><path class="fcc3b196-8eb2-4aff-99c9-ac7d4e8d9efd" d="M4.81,8.81a.09.09,0,0,0,.09.09A.1.1,0,0,0,5,8.81a.1.1,0,0,0-.1-.1A.09.09,0,0,0,4.81,8.81Z"/><circle class="fcc3b196-8eb2-4aff-99c9-ac7d4e8d9efd" cx="4.9" cy="9.58" r="0.09"/><path class="fcc3b196-8eb2-4aff-99c9-ac7d4e8d9efd" d="M4.82,10.35a.08.08,0,0,0,.08.08A.07.07,0,0,0,5,10.35a.08.08,0,0,0-.08-.08A.09.09,0,0,0,4.82,10.35Z"/><circle class="fcc3b196-8eb2-4aff-99c9-ac7d4e8d9efd" cx="4.9" cy="11.13" r="0.07"/><circle class="fcc3b196-8eb2-4aff-99c9-ac7d4e8d9efd" cx="4.9" cy="11.9" r="0.07"/><path class="fcc3b196-8eb2-4aff-99c9-ac7d4e8d9efd" d="M4.84,12.67a.06.06,0,0,0,.06.06A.05.05,0,0,0,5,12.67a.06.06,0,0,0-.06-.06A.06.06,0,0,0,4.84,12.67Z"/><path class="fcc3b196-8eb2-4aff-99c9-ac7d4e8d9efd" d="M4.85,13.44s0,.06.05.06A.06.06,0,0,0,5,13.44a.06.06,0,0,0-.06,0A0,0,0,0,0,4.85,13.44Z"/><path class="fcc3b196-8eb2-4aff-99c9-ac7d4e8d9efd" d="M4.85,14.22a.05.05,0,1,0,.05-.05A0,0,0,0,0,4.85,14.22Z"/><circle class="fcc3b196-8eb2-4aff-99c9-ac7d4e8d9efd" cx="4.9" cy="14.99" r="0.04"/><path class="fcc3b196-8eb2-4aff-99c9-ac7d4e8d9efd" d="M4.86,15.76a0,0,0,1,0,.08,0s0,0,0,0S4.86,15.74,4.86,15.76Z"/><path class="fcc3b196-8eb2-4aff-99c9-ac7d4e8d9efd" d="M4.87,16.54a0,0,0,0,0,.06,0,0,0,0,0,0-.06,0A0,0,0,0,0,4.87,16.54Z"/><path class="fcc3b196-8eb2-4aff-99c9-ac7d4e8d9efd" d="M4.88,17.31s0,0,0,0a0,0,0,0,0,0,0l0,0S4.88,17.3,4.88,17.31Z"/><path class="fcc3b196-8eb2-4aff-99c9-ac7d4e8d9efd" d="M4.88,18.08a0,0,0,0,0,0,0,0,0,0,0,0,0,0,0,0,0,0,0,0,0A0,0,0,0,0,4.92,18.08Z"/><path class="fcc3b196-8eb2-4aff-99c9-ac7d4e8d9efd" d="M4.89,18.86a0,0,0,0,0,0,0,0,0,0,0,0,0,0s0,0,0,0S4.89,18.85,4.89,18.86Z"/><path class="fcc3b196-8eb2-4aff-99c9-ac7d4e8d9efd" d="M4.89,19.63h0a0,0,0,0,0,0,0h0Z"/><polygon class="fcc3b196-8eb2-4aff-99c9-ac7d4e8d9efd" points="4.9 20.4 4.9 20.41 4.9 20.4 4.9 20.4 4.9 20.4"/><path class="fcc3b196-8eb2-4aff-99c9-ac7d4e8d9efd" d="M4,.3A.11.11,0,1,0,4.13.19.11.11,0,0,0,4,.3Z"/><path class="fcc3b196-8eb2-4aff-99c9-ac7d4e8d9efd" d="M4,1.08a.11.11,0,0,0,.22,0,.11.11,0,0,0-.22,0Z"/><path class="fcc3b196-8eb2-4aff-99c9-ac7d4e8d9efd" d="M4,1.85a.11.11,0,1,0,.11-.11A.11.11,0,0,0,4,1.85Z"/><path class="fcc3b196-8eb2-4aff-99c9-ac7d4e8d9efd" d="M4,2.62a.11.11,0,1,0,.11-.11A.11.11,0,0,0,4,2.62Z"/><path class="fcc3b196-8eb2-4aff-99c9-ac7d4e8d9efd" d="M4,3.39a.11.11,0,0,0,.22,0,.11.11,0,0,0-.22,0Z"/><path class="fcc3b196-8eb2-4aff-99c9-ac7d4e8d9efd" d="M4,4.17a.11.11,0,1,0,.11-.11A.11.11,0,0,0,4,4.17Z"/><path class="fcc3b196-8eb2-4aff-99c9-ac7d4e8d9efd" d="M4,4.94a.11.11,0,1,0,.11-.11A.11.11,0,0,0,4,4.94Z"/><path class="fcc3b196-8eb2-4aff-99c9-ac7d4e8d9efd" d="M4,5.71a.11.11,0,1,0,.11-.11A.11.11,0,0,0,4,5.71Z"/><path class="fcc3b196-8eb2-4aff-99c9-ac7d4e8d9efd" d="M4,6.49a.11.11,0,1,0,.11-.11A.11.11,0,0,0,4,6.49Z"/><path class="fcc3b196-8eb2-4aff-99c9-ac7d4e8d9efd" d="M4,7.26a.11.11,0,0,0,.11.11.1.1,0,0,0,.1-.11.09.09,0,0,0-.1-.1A.1.1,0,0,0,4,7.26Z"/><circle class="fcc3b196-8eb2-4aff-99c9-ac7d4e8d9efd" cx="4.13" cy="8.03" r="0.1"/><path class="fcc3b196-8eb2-4aff-99c9-ac7d4e8d9efd" d="M4,8.81a.1.1,0,0,0,.1.09.09.09,0,0,0,.09-.09.09.09,0,0,0-.09-.1A.1.1,0,0,0,4,8.81Z"/><circle class="fcc3b196-8eb2-4aff-99c9-ac7d4e8d9efd" cx="4.13" cy="9.58" r="0.09"/><path class="fcc3b196-8eb2-4aff-99c9-ac7d4e8d9efd" d="M4.05,10.35a.07.07,0,0,0,.08.08.08.08,0,0,0,.08-.08.09.09,0,0,0-.08-.08A.08.08,0,0,0,4.05,10.35Z"/><path class="fcc3b196-8eb2-4aff-99c9-ac7d4e8d9efd" d="M4.05,11.13a.08.08,0,0,0,.08.07.07.07,0,0,0,.07-.07.07.07,0,0,0-.07-.08A.08.08,0,0,0,4.05,11.13Z"/><circle class="fcc3b196-8eb2-4aff-99c9-ac7d4e8d9efd" cx="4.13" cy="11.9" r="0.07"/><path class="fcc3b196-8eb2-4aff-99c9-ac7d4e8d9efd" d="M4.07,12.67a.05.05,0,0,0,.06.06.06.06,0,0,0,.06-.06.06.06,0,0,0-.06-.06A.06.06,0,0,0,4.07,12.67Z"/><path class="fcc3b196-8eb2-4aff-99c9-ac7d4e8d9efd" d="M4.07,13.44a.06.06,0,0,0,.06.06s0,0,0-.06a0,0,0,0,0,0,0A.06.06,0,0,0,4.07,13.44Z"/><circle class="fcc3b196-8eb2-4aff-99c9-ac7d4e8d9efd" cx="4.13" cy="14.22" r="0.05"/><path class="fcc3b196-8eb2-4aff-99c9-ac7d4e8d9efd" d="M4.08,15a0,0,0,0,0,0,0,0,0,0,0,0,0-.08A0,0,0,0,0,4.08,15Z"/><path class="fcc3b196-8eb2-4aff-99c9-ac7d4e8d9efd" d="M4.09,15.76a0,0,0,0,0,.08,0s0,0,0,0S4.09,15.74,4.09,15.76Z"/><path class="fcc3b196-8eb2-4aff-99c9-ac7d4e8d9efd" d="M4.1,16.54a0,0,0,0,0,.06,0,0,0,0,0,0-.06,0A0,0,0,0,0,4.1,16.54Z"/><path class="fcc3b196-8eb2-4aff-99c9-ac7d4e8d9efd" d="M4.1,17.31a0,0,0,0,0,0,0s0,0,0,0,0,0,0,0A0,0,0,0,0,4.1,17.31Z"/><circle class="fcc3b196-8eb2-4aff-99c9-ac7d4e8d9efd" cx="4.13" cy="18.08" r="0.02"/><path class="fcc3b196-8eb2-4aff-99c9-ac7d4e8d9efd" d="M4.11,18.86h0v0A0,0,0,0,0,4.11,18.86Z"/><path class="fcc3b196-8eb2-4aff-99c9-ac7d4e8d9efd" d="M4.12,19.63a0,0,0,0,0,0,0h0Z"/><polygon class="fcc3b196-8eb2-4aff-99c9-ac7d4e8d9efd" points="4.13 20.4 4.13 20.41 4.13 20.4 4.13 20.4 4.13 20.4"/><path class="fcc3b196-8eb2-4aff-99c9-ac7d4e8d9efd" d="M3.25.3a.1.1,0,0,0,.1.11.11.11,0,0,0,0-.22A.1.1,0,0,0,3.25.3Z"/><path class="fcc3b196-8eb2-4aff-99c9-ac7d4e8d9efd" d="M3.25,1.08a.09.09,0,0,0,.1.1.1.1,0,0,0,.11-.1A.11.11,0,0,0,3.35,1,.1.1,0,0,0,3.25,1.08Z"/><path class="fcc3b196-8eb2-4aff-99c9-ac7d4e8d9efd" d="M3.25,1.85a.1.1,0,0,0,.1.11.11.11,0,0,0,0-.22A.1.1,0,0,0,3.25,1.85Z"/><path class="fcc3b196-8eb2-4aff-99c9-ac7d4e8d9efd" d="M3.25,2.62a.1.1,0,0,0,.1.11.11.11,0,0,0,0-.22A.1.1,0,0,0,3.25,2.62Z"/><path class="fcc3b196-8eb2-4aff-99c9-ac7d4e8d9efd" d="M3.25,3.39a.1.1,0,0,0,.1.11.1.1,0,0,0,.11-.11.1.1,0,0,0-.11-.1A.09.09,0,0,0,3.25,3.39Z"/><path class="fcc3b196-8eb2-4aff-99c9-ac7d4e8d9efd" d="M3.25,4.17a.1.1,0,0,0,.1.11.11.11,0,0,0,0-.22A.1.1,0,0,0,3.25,4.17Z"/><path class="fcc3b196-8eb2-4aff-99c9-ac7d4e8d9efd" d="M3.25,4.94a.1.1,0,0,0,.1.11.11.11,0,0,0,0-.22A.1.1,0,0,0,3.25,4.94Z"/><path class="fcc3b196-8eb2-4aff-99c9-ac7d4e8d9efd" d="M3.25,5.71a.1.1,0,0,0,.1.11.11.11,0,0,0,0-.22A.1.1,0,0,0,3.25,5.71Z"/><path class="fcc3b196-8eb2-4aff-99c9-ac7d4e8d9efd" d="M3.25,6.49a.1.1,0,0,0,.1.11.11.11,0,0,0,0-.22A.1.1,0,0,0,3.25,6.49Z"/><path class="fcc3b196-8eb2-4aff-99c9-ac7d4e8d9efd" d="M3.25,7.26a.11.11,0,0,0,.1.11.11.11,0,0,0,.11-.11.1.1,0,0,0-.11-.1A.1.1,0,0,0,3.25,7.26Z"/><path class="fcc3b196-8eb2-4aff-99c9-ac7d4e8d9efd" d="M3.26,8a.09.09,0,0,0,.09.1.09.09,0,0,0,.1-.1.1.1,0,0,0-.1-.1A.1.1,0,0,0,3.26,8Z"/><path class="fcc3b196-8eb2-4aff-99c9-ac7d4e8d9efd" d="M3.26,8.81a.09.09,0,0,0,.09.09.09.09,0,0,0,.1-.09.09.09,0,0,0-.1-.1A.09.09,0,0,0,3.26,8.81Z"/><path class="fcc3b196-8eb2-4aff-99c9-ac7d4e8d9efd" d="M3.27,9.58a.09.09,0,0,0,.08.09.09.09,0,0,0,0-.18A.09.09,0,0,0,3.27,9.58Z"/><path class="fcc3b196-8eb2-4aff-99c9-ac7d4e8d9efd" d="M3.27,10.35a.08.08,0,0,0,.08.08.08.08,0,0,0,.09-.08.09.09,0,0,0-.09-.08A.09.09,0,0,0,3.27,10.35Z"/><path class="fcc3b196-8eb2-4aff-99c9-ac7d4e8d9efd" d="M3.28,11.13a.07.07,0,0,0,.07.07.07.07,0,0,0,.08-.07.07.07,0,0,0-.08-.08A.07.07,0,0,0,3.28,11.13Z"/><circle class="fcc3b196-8eb2-4aff-99c9-ac7d4e8d9efd" cx="3.35" cy="11.9" r="0.07"/><path class="fcc3b196-8eb2-4aff-99c9-ac7d4e8d9efd" d="M3.29,12.67a.06.06,0,0,0,.06.06s.07,0,.07-.06a.07.07,0,0,0-.07-.06A.06.06,0,0,0,3.29,12.67Z"/><path class="fcc3b196-8eb2-4aff-99c9-ac7d4e8d9efd" d="M3.3,13.44s0,.06.05.06a.05.05,0,0,0,.06-.06s0,0-.06,0A0,0,0,0,0,3.3,13.44Z"/><circle class="fcc3b196-8eb2-4aff-99c9-ac7d4e8d9efd" cx="3.35" cy="14.22" r="0.05"/><path class="fcc3b196-8eb2-4aff-99c9-ac7d4e8d9efd" d="M3.31,15a0,0,0,0,0,0,0,0,0,0,1,0,0-.08A0,0,0,0,0,3.31,15Z"/><path class="fcc3b196-8eb2-4aff-99c9-ac7d4e8d9efd" d="M3.32,15.76s0,0,0,0,0,0,0,0,0,0,0,0A0,0,0,0,0,3.32,15.76Z"/><path class="fcc3b196-8eb2-4aff-99c9-ac7d4e8d9efd" d="M3.32,16.54a0,0,0,0,0,0,0s0,0,0,0,0,0,0,0A0,0,0,0,0,3.32,16.54Z"/><path class="fcc3b196-8eb2-4aff-99c9-ac7d4e8d9efd" d="M3.33,17.31s0,0,0,0a0,0,0,1,0,0-.06S3.33,17.3,3.33,17.31Z"/><path class="fcc3b196-8eb2-4aff-99c9-ac7d4e8d9efd" d="M3.34,18.08s0,0,0,0,0,0,0,0,0,0,0,0S3.34,18.07,3.34,18.08Z"/><path class="fcc3b196-8eb2-4aff-99c9-ac7d4e8d9efd" d="M3.34,18.86h0l0,0Z"/><path class="fcc3b196-8eb2-4aff-99c9-ac7d4e8d9efd" d="M3.35,19.63h0a0,0,0,0,0,0,0h0Z"/><polygon class="fcc3b196-8eb2-4aff-99c9-ac7d4e8d9efd" points="3.35 20.4 3.35 20.41 3.36 20.4 3.35 20.4 3.35 20.4"/><circle class="fcc3b196-8eb2-4aff-99c9-ac7d4e8d9efd" cx="2.58" cy="0.3" r="0.08"/><circle class="fcc3b196-8eb2-4aff-99c9-ac7d4e8d9efd" cx="2.58" cy="1.08" r="0.08"/><path class="fcc3b196-8eb2-4aff-99c9-ac7d4e8d9efd" d="M2.5,1.85a.08.08,0,1,0,.08-.08A.09.09,0,0,0,2.5,1.85Z"/><path class="fcc3b196-8eb2-4aff-99c9-ac7d4e8d9efd" d="M2.5,2.62a.08.08,0,1,0,.08-.08A.09.09,0,0,0,2.5,2.62Z"/><circle class="fcc3b196-8eb2-4aff-99c9-ac7d4e8d9efd" cx="2.58" cy="3.39" r="0.08"/><circle class="fcc3b196-8eb2-4aff-99c9-ac7d4e8d9efd" cx="2.58" cy="4.17" r="0.08"/><path class="fcc3b196-8eb2-4aff-99c9-ac7d4e8d9efd" d="M2.51,4.94A.08.08,0,0,0,2.58,5a.09.09,0,0,0,.08-.08.08.08,0,0,0-.08-.07A.07.07,0,0,0,2.51,4.94Z"/><path class="fcc3b196-8eb2-4aff-99c9-ac7d4e8d9efd" d="M2.51,5.71a.07.07,0,0,0,.07.08.08.08,0,0,0,.08-.08.08.08,0,0,0-.08-.07A.07.07,0,0,0,2.51,5.71Z"/><path class="fcc3b196-8eb2-4aff-99c9-ac7d4e8d9efd" d="M2.51,6.49a.07.07,0,0,0,.07.07.08.08,0,0,0,.08-.07.09.09,0,0,0-.08-.08A.08.08,0,0,0,2.51,6.49Z"/><path class="fcc3b196-8eb2-4aff-99c9-ac7d4e8d9efd" d="M2.51,7.26a.07.07,0,1,0,.07-.07A.07.07,0,0,0,2.51,7.26Z"/><circle class="fcc3b196-8eb2-4aff-99c9-ac7d4e8d9efd" cx="2.58" cy="8.03" r="0.07"/><circle class="fcc3b196-8eb2-4aff-99c9-ac7d4e8d9efd" cx="2.58" cy="8.81" r="0.06"/><path class="fcc3b196-8eb2-4aff-99c9-ac7d4e8d9efd" d="M2.52,9.58a.06.06,0,1,0,.06-.06A.06.06,0,0,0,2.52,9.58Z"/><path class="fcc3b196-8eb2-4aff-99c9-ac7d4e8d9efd" d="M2.53,10.35a.06.06,0,0,0,.05.06.06.06,0,0,0,.06-.06.06.06,0,0,0-.06,0A0,0,0,0,0,2.53,10.35Z"/><path class="fcc3b196-8eb2-4aff-99c9-ac7d4e8d9efd" d="M2.53,11.13a0,0,0,0,0,.1,0,.05.05,0,1,0-.1,0Z"/><path class="fcc3b196-8eb2-4aff-99c9-ac7d4e8d9efd" d="M2.53,11.9a.06.06,0,0,0,.05,0,.05.05,0,0,0,0,0,0,0,0,0,0,0-.05A.05.05,0,0,0,2.53,11.9Z"/><path class="fcc3b196-8eb2-4aff-99c9-ac7d4e8d9efd" d="M2.54,12.67a0,0,0,0,0,0,0s0,0,0,0a0,0,0,0,0,0,0A0,0,0,0,0,2.54,12.67Z"/><circle class="fcc3b196-8eb2-4aff-99c9-ac7d4e8d9efd" cx="2.58" cy="13.44" r="0.04"/><circle class="fcc3b196-8eb2-4aff-99c9-ac7d4e8d9efd" cx="2.58" cy="14.22" r="0.03"/><circle class="fcc3b196-8eb2-4aff-99c9-ac7d4e8d9efd" cx="2.58" cy="14.99" r="0.03"/><path class="fcc3b196-8eb2-4aff-99c9-ac7d4e8d9efd" d="M2.56,15.76s0,0,0,0a0,0,0,0,0,0,0s0,0,0,0Z"/><path class="fcc3b196-8eb2-4aff-99c9-ac7d4e8d9efd" d="M2.56,16.54a0,0,0,0,0,0,0,0,0,0,0,0,0,0l0,0A0,0,0,0,0,2.56,16.54Z"/><path class="fcc3b196-8eb2-4aff-99c9-ac7d4e8d9efd" d="M2.56,17.31a0,0,0,0,0,0,0,0,0,0,0,0,0,0l0,0A0,0,0,0,0,2.56,17.31Z"/><path class="fcc3b196-8eb2-4aff-99c9-ac7d4e8d9efd" d="M2.57,18.08s0,0,0,0,0,0,0,0h0Z"/><path class="fcc3b196-8eb2-4aff-99c9-ac7d4e8d9efd" d="M2.57,18.86h0Z"/><polygon class="fcc3b196-8eb2-4aff-99c9-ac7d4e8d9efd" points="2.58 19.63 2.58 19.63 2.59 19.63 2.58 19.63 2.58 19.63"/></g><g class="e20ebe66-cfe8-48f3-bb4a-7bc144981d05"><path class="fcc3b196-8eb2-4aff-99c9-ac7d4e8d9efd" d="M8.55,29.71a.07.07,0,1,0-.07.07A.07.07,0,0,0,8.55,29.71Z"/><path class="fcc3b196-8eb2-4aff-99c9-ac7d4e8d9efd" d="M8.55,28.94a.07.07,0,1,0-.07.07A.07.07,0,0,0,8.55,28.94Z"/><path class="fcc3b196-8eb2-4aff-99c9-ac7d4e8d9efd" d="M8.55,28.16a.07.07,0,0,0-.14,0,.07.07,0,1,0,.14,0Z"/><path class="fcc3b196-8eb2-4aff-99c9-ac7d4e8d9efd" d="M8.55,27.39a.07.07,0,1,0-.07.07A.07.07,0,0,0,8.55,27.39Z"/><circle class="fcc3b196-8eb2-4aff-99c9-ac7d4e8d9efd" cx="8.48" cy="26.62" r="0.07"/><path class="fcc3b196-8eb2-4aff-99c9-ac7d4e8d9efd" d="M8.55,25.85a.07.07,0,1,0-.14,0,.07.07,0,0,0,.14,0Z"/><path class="fcc3b196-8eb2-4aff-99c9-ac7d4e8d9efd" d="M8.55,25.07a.07.07,0,1,0-.07.07A.07.07,0,0,0,8.55,25.07Z"/><path class="fcc3b196-8eb2-4aff-99c9-ac7d4e8d9efd" d="M8.55,24.3a.07.07,0,1,0-.07.07A.07.07,0,0,0,8.55,24.3Z"/><path class="fcc3b196-8eb2-4aff-99c9-ac7d4e8d9efd" d="M8.55,23.53a.07.07,0,1,0-.07.07A.07.07,0,0,0,8.55,23.53Z"/><path class="fcc3b196-8eb2-4aff-99c9-ac7d4e8d9efd" d="M8.55,22.75a.07.07,0,1,0-.07.07A.07.07,0,0,0,8.55,22.75Z"/><path class="fcc3b196-8eb2-4aff-99c9-ac7d4e8d9efd" d="M8.55,22a.07.07,0,1,0-.07.07A.07.07,0,0,0,8.55,22Z"/><path class="fcc3b196-8eb2-4aff-99c9-ac7d4e8d9efd" d="M8.55,21.21a.07.07,0,1,0-.07.07A.07.07,0,0,0,8.55,21.21Z"/><path class="fcc3b196-8eb2-4aff-99c9-ac7d4e8d9efd" d="M8.55,20.43a.07.07,0,0,0-.14,0,.07.07,0,0,0,.14,0Z"/><circle class="fcc3b196-8eb2-4aff-99c9-ac7d4e8d9efd" cx="8.48" cy="19.66" r="0.07"/><path class="fcc3b196-8eb2-4aff-99c9-ac7d4e8d9efd" d="M8.55,18.89a.07.07,0,1,0-.07.07A.07.07,0,0,0,8.55,18.89Z"/><path class="fcc3b196-8eb2-4aff-99c9-ac7d4e8d9efd" d="M8.55,18.11a.07.07,0,0,0-.14,0,.07.07,0,1,0,.14,0Z"/><path class="fcc3b196-8eb2-4aff-99c9-ac7d4e8d9efd" d="M8.55,17.34a.07.07,0,1,0-.07.07A.07.07,0,0,0,8.55,17.34Z"/><circle class="fcc3b196-8eb2-4aff-99c9-ac7d4e8d9efd" cx="8.48" cy="16.57" r="0.07"/><circle class="fcc3b196-8eb2-4aff-99c9-ac7d4e8d9efd" cx="8.48" cy="15.8" r="0.06"/><path class="fcc3b196-8eb2-4aff-99c9-ac7d4e8d9efd" d="M8.54,15a.06.06,0,0,0-.12,0,.06.06,0,1,0,.12,0Z"/><path class="fcc3b196-8eb2-4aff-99c9-ac7d4e8d9efd" d="M8.54,14.25a.06.06,0,1,0-.06.06A.06.06,0,0,0,8.54,14.25Z"/><circle class="fcc3b196-8eb2-4aff-99c9-ac7d4e8d9efd" cx="8.48" cy="13.48" r="0.05"/><circle class="fcc3b196-8eb2-4aff-99c9-ac7d4e8d9efd" cx="8.48" cy="12.7" r="0.05"/><circle class="fcc3b196-8eb2-4aff-99c9-ac7d4e8d9efd" cx="8.48" cy="11.93" r="0.04"/><path class="fcc3b196-8eb2-4aff-99c9-ac7d4e8d9efd" d="M8.52,11.16a0,0,0,1,0-.08,0,0,0,0,1,0,.08,0Z"/><path class="fcc3b196-8eb2-4aff-99c9-ac7d4e8d9efd" d="M8.52,10.38s0,0,0,0,0,0,0,0a0,0,0,1,0,.08,0Z"/><circle class="fcc3b196-8eb2-4aff-99c9-ac7d4e8d9efd" cx="8.48" cy="9.61" r="0.03"/><path class="fcc3b196-8eb2-4aff-99c9-ac7d4e8d9efd" d="M8.51,8.84a0,0,0,0,0,0,0,0,0,0,0,0,0,0,0,0,0,0,0,0,0Z"/><path class="fcc3b196-8eb2-4aff-99c9-ac7d4e8d9efd" d="M8.5,8.06a0,0,0,0,0,0,0,0,0,0,0,0,0,0s0,0,0,0S8.5,8.08,8.5,8.06Z"/><circle class="fcc3b196-8eb2-4aff-99c9-ac7d4e8d9efd" cx="8.48" cy="7.29" r="0.02"/><path class="fcc3b196-8eb2-4aff-99c9-ac7d4e8d9efd" d="M8.5,6.52l0,0,0,0a0,0,0,0,0,0,0A0,0,0,0,0,8.46,6.52Z"/><path class="fcc3b196-8eb2-4aff-99c9-ac7d4e8d9efd" d="M8.49,5.75s0,0,0,0,0,0,0,0h0Z"/><path class="fcc3b196-8eb2-4aff-99c9-ac7d4e8d9efd" d="M8.49,5h0s0,0,0,0A0,0,0,0,0,8.49,5Z"/><polygon class="fcc3b196-8eb2-4aff-99c9-ac7d4e8d9efd" points="8.48 4.2 8.48 4.2 8.47 4.2 8.48 4.2 8.48 4.2"/><path class="fcc3b196-8eb2-4aff-99c9-ac7d4e8d9efd" d="M9.36,29.71a.11.11,0,0,0-.11-.11.11.11,0,0,0,0,.22A.11.11,0,0,0,9.36,29.71Z"/><path class="fcc3b196-8eb2-4aff-99c9-ac7d4e8d9efd" d="M9.36,28.94a.11.11,0,0,0-.11-.11.11.11,0,0,0,0,.22A.11.11,0,0,0,9.36,28.94Z"/><path class="fcc3b196-8eb2-4aff-99c9-ac7d4e8d9efd" d="M9.36,28.16a.11.11,0,0,0-.11-.1.1.1,0,0,0-.1.1.1.1,0,0,0,.1.11A.11.11,0,0,0,9.36,28.16Z"/><path class="fcc3b196-8eb2-4aff-99c9-ac7d4e8d9efd" d="M9.36,27.39a.11.11,0,0,0-.11-.11.11.11,0,0,0,0,.22A.11.11,0,0,0,9.36,27.39Z"/><path class="fcc3b196-8eb2-4aff-99c9-ac7d4e8d9efd" d="M9.36,26.62a.11.11,0,0,0-.11-.11.11.11,0,0,0,0,.22A.11.11,0,0,0,9.36,26.62Z"/><path class="fcc3b196-8eb2-4aff-99c9-ac7d4e8d9efd" d="M9.36,25.85a.11.11,0,0,0-.11-.11.1.1,0,0,0-.1.11.1.1,0,0,0,.1.1A.11.11,0,0,0,9.36,25.85Z"/><path class="fcc3b196-8eb2-4aff-99c9-ac7d4e8d9efd" d="M9.36,25.07a.1.1,0,0,0-.11-.1.09.09,0,0,0-.1.1.1.1,0,0,0,.1.11A.11.11,0,0,0,9.36,25.07Z"/><path class="fcc3b196-8eb2-4aff-99c9-ac7d4e8d9efd" d="M9.36,24.3a.11.11,0,0,0-.11-.11.11.11,0,0,0,0,.22A.11.11,0,0,0,9.36,24.3Z"/><path class="fcc3b196-8eb2-4aff-99c9-ac7d4e8d9efd" d="M9.36,23.53a.11.11,0,1,0-.11.11A.11.11,0,0,0,9.36,23.53Z"/><path class="fcc3b196-8eb2-4aff-99c9-ac7d4e8d9efd" d="M9.36,22.75a.11.11,0,1,0-.11.11A.11.11,0,0,0,9.36,22.75Z"/><path class="fcc3b196-8eb2-4aff-99c9-ac7d4e8d9efd" d="M9.36,22a.11.11,0,1,0-.11.11A.11.11,0,0,0,9.36,22Z"/><path class="fcc3b196-8eb2-4aff-99c9-ac7d4e8d9efd" d="M9.36,21.21a.11.11,0,1,0-.11.11A.11.11,0,0,0,9.36,21.21Z"/><path class="fcc3b196-8eb2-4aff-99c9-ac7d4e8d9efd" d="M9.36,20.43a.11.11,0,1,0-.11.11A.11.11,0,0,0,9.36,20.43Z"/><path class="fcc3b196-8eb2-4aff-99c9-ac7d4e8d9efd" d="M9.36,19.66a.11.11,0,1,0-.11.11A.11.11,0,0,0,9.36,19.66Z"/><path class="fcc3b196-8eb2-4aff-99c9-ac7d4e8d9efd" d="M9.36,18.89a.11.11,0,1,0-.11.11A.11.11,0,0,0,9.36,18.89Z"/><path class="fcc3b196-8eb2-4aff-99c9-ac7d4e8d9efd" d="M9.36,18.11a.11.11,0,0,0-.22,0,.11.11,0,0,0,.22,0Z"/><path class="fcc3b196-8eb2-4aff-99c9-ac7d4e8d9efd" d="M9.36,17.34a.11.11,0,1,0-.11.11A.11.11,0,0,0,9.36,17.34Z"/><path class="fcc3b196-8eb2-4aff-99c9-ac7d4e8d9efd" d="M9.36,16.57a.11.11,0,0,0-.11-.11.1.1,0,0,0-.1.11.09.09,0,0,0,.1.1A.1.1,0,0,0,9.36,16.57Z"/><path class="fcc3b196-8eb2-4aff-99c9-ac7d4e8d9efd" d="M9.35,15.8a.09.09,0,0,0-.1-.1.1.1,0,0,0-.1.1.1.1,0,0,0,.1.09A.09.09,0,0,0,9.35,15.8Z"/><path class="fcc3b196-8eb2-4aff-99c9-ac7d4e8d9efd" d="M9.35,15a.1.1,0,0,0-.1-.09.09.09,0,0,0-.09.09.1.1,0,0,0,.09.1A.11.11,0,0,0,9.35,15Z"/><path class="fcc3b196-8eb2-4aff-99c9-ac7d4e8d9efd" d="M9.34,14.25a.09.09,0,1,0-.09.09A.09.09,0,0,0,9.34,14.25Z"/><path class="fcc3b196-8eb2-4aff-99c9-ac7d4e8d9efd" d="M9.33,13.48a.08.08,0,0,0-.08-.09.09.09,0,0,0-.08.09.09.09,0,0,0,.08.08A.08.08,0,0,0,9.33,13.48Z"/><path class="fcc3b196-8eb2-4aff-99c9-ac7d4e8d9efd" d="M9.33,12.7a.08.08,0,0,0-.08-.07.07.07,0,0,0-.07.07.08.08,0,0,0,.07.08A.09.09,0,0,0,9.33,12.7Z"/><path class="fcc3b196-8eb2-4aff-99c9-ac7d4e8d9efd" d="M9.32,11.93a.07.07,0,1,0-.07.07A.07.07,0,0,0,9.32,11.93Z"/><path class="fcc3b196-8eb2-4aff-99c9-ac7d4e8d9efd" d="M9.31,11.16a.05.05,0,0,0-.06-.06.06.06,0,0,0-.06.06.06.06,0,0,0,.06.06A.06.06,0,0,0,9.31,11.16Z"/><path class="fcc3b196-8eb2-4aff-99c9-ac7d4e8d9efd" d="M9.31,10.38a.06.06,0,0,0-.06-.05,0,0,0,0,0-.05.05.06.06,0,0,0,.05.06A.06.06,0,0,0,9.31,10.38Z"/><path class="fcc3b196-8eb2-4aff-99c9-ac7d4e8d9efd" d="M9.3,9.61a0,0,0,0,0-.05,0,.05.05,0,0,0,0,.1A0,0,0,0,0,9.3,9.61Z"/><path class="fcc3b196-8eb2-4aff-99c9-ac7d4e8d9efd" d="M9.3,8.84s0,0-.05,0a0,0,0,0,0,0,0,0,0,0,0,0,0,0A0,0,0,0,0,9.3,8.84Z"/><path class="fcc3b196-8eb2-4aff-99c9-ac7d4e8d9efd" d="M9.29,8.06s0,0,0,0,0,0,0,0a0,0,0,1,0,.08,0Z"/><path class="fcc3b196-8eb2-4aff-99c9-ac7d4e8d9efd" d="M9.28,7.29a0,0,0,0,0-.06,0,0,0,0,0,0,.06,0A0,0,0,0,0,9.28,7.29Z"/><path class="fcc3b196-8eb2-4aff-99c9-ac7d4e8d9efd" d="M9.28,6.52a0,0,0,0,0,0,0s0,0,0,0a0,0,0,0,0,0,0S9.28,6.53,9.28,6.52Z"/><path class="fcc3b196-8eb2-4aff-99c9-ac7d4e8d9efd" d="M9.27,5.75l0,0,0,0h0Z"/><path class="fcc3b196-8eb2-4aff-99c9-ac7d4e8d9efd" d="M9.27,5h0a0,0,0,0,0,0,0A0,0,0,0,0,9.27,5Z"/><path class="fcc3b196-8eb2-4aff-99c9-ac7d4e8d9efd" d="M9.26,4.2h0Z"/><polygon class="fcc3b196-8eb2-4aff-99c9-ac7d4e8d9efd" points="9.26 3.43 9.25 3.42 9.25 3.43 9.25 3.43 9.26 3.43"/><path class="fcc3b196-8eb2-4aff-99c9-ac7d4e8d9efd" d="M10.13,29.71a.11.11,0,0,0-.1-.11.11.11,0,0,0,0,.22A.11.11,0,0,0,10.13,29.71Z"/><path class="fcc3b196-8eb2-4aff-99c9-ac7d4e8d9efd" d="M10.13,28.94a.11.11,0,0,0-.1-.11.11.11,0,0,0,0,.22A.11.11,0,0,0,10.13,28.94Z"/><path class="fcc3b196-8eb2-4aff-99c9-ac7d4e8d9efd" d="M10.13,28.16a.11.11,0,0,0-.1-.1.11.11,0,0,0-.11.1.11.11,0,0,0,.11.11A.11.11,0,0,0,10.13,28.16Z"/><path class="fcc3b196-8eb2-4aff-99c9-ac7d4e8d9efd" d="M10.13,27.39a.11.11,0,0,0-.1-.11.11.11,0,0,0,0,.22A.11.11,0,0,0,10.13,27.39Z"/><path class="fcc3b196-8eb2-4aff-99c9-ac7d4e8d9efd" d="M10.13,26.62a.11.11,0,0,0-.1-.11.11.11,0,1,0,0,.22A.11.11,0,0,0,10.13,26.62Z"/><path class="fcc3b196-8eb2-4aff-99c9-ac7d4e8d9efd" d="M10.13,25.85a.11.11,0,0,0-.1-.11.11.11,0,0,0-.11.11A.11.11,0,0,0,10,26,.11.11,0,0,0,10.13,25.85Z"/><path class="fcc3b196-8eb2-4aff-99c9-ac7d4e8d9efd" d="M10.13,25.07A.1.1,0,0,0,10,25a.1.1,0,0,0-.11.1.11.11,0,0,0,.11.11A.11.11,0,0,0,10.13,25.07Z"/><path class="fcc3b196-8eb2-4aff-99c9-ac7d4e8d9efd" d="M10.13,24.3a.11.11,0,0,0-.1-.11.11.11,0,1,0,0,.22A.11.11,0,0,0,10.13,24.3Z"/><path class="fcc3b196-8eb2-4aff-99c9-ac7d4e8d9efd" d="M10.13,23.53a.1.1,0,0,0-.1-.11.11.11,0,0,0,0,.22A.1.1,0,0,0,10.13,23.53Z"/><path class="fcc3b196-8eb2-4aff-99c9-ac7d4e8d9efd" d="M10.13,22.75a.1.1,0,0,0-.1-.11.11.11,0,0,0,0,.22A.1.1,0,0,0,10.13,22.75Z"/><path class="fcc3b196-8eb2-4aff-99c9-ac7d4e8d9efd" d="M10.13,22a.1.1,0,0,0-.1-.11.11.11,0,1,0,0,.22A.1.1,0,0,0,10.13,22Z"/><path class="fcc3b196-8eb2-4aff-99c9-ac7d4e8d9efd" d="M10.13,21.21a.1.1,0,0,0-.1-.11.11.11,0,0,0,0,.22A.1.1,0,0,0,10.13,21.21Z"/><path class="fcc3b196-8eb2-4aff-99c9-ac7d4e8d9efd" d="M10.13,20.43a.1.1,0,0,0-.1-.11.11.11,0,0,0,0,.22A.1.1,0,0,0,10.13,20.43Z"/><path class="fcc3b196-8eb2-4aff-99c9-ac7d4e8d9efd" d="M10.13,19.66a.1.1,0,0,0-.1-.11.11.11,0,1,0,0,.22A.1.1,0,0,0,10.13,19.66Z"/><path class="fcc3b196-8eb2-4aff-99c9-ac7d4e8d9efd" d="M10.13,18.89a.1.1,0,0,0-.1-.11A.11.11,0,0,0,10,19,.1.1,0,0,0,10.13,18.89Z"/><path class="fcc3b196-8eb2-4aff-99c9-ac7d4e8d9efd" d="M10.13,18.11A.09.09,0,0,0,10,18a.1.1,0,0,0-.11.1.1.1,0,0,0,.11.11A.1.1,0,0,0,10.13,18.11Z"/><path class="fcc3b196-8eb2-4aff-99c9-ac7d4e8d9efd" d="M10.13,17.34a.1.1,0,0,0-.1-.11.11.11,0,1,0,0,.22A.1.1,0,0,0,10.13,17.34Z"/><path class="fcc3b196-8eb2-4aff-99c9-ac7d4e8d9efd" d="M10.13,16.57a.11.11,0,0,0-.1-.11.11.11,0,0,0-.11.11.1.1,0,0,0,.11.1A.1.1,0,0,0,10.13,16.57Z"/><path class="fcc3b196-8eb2-4aff-99c9-ac7d4e8d9efd" d="M10.12,15.8a.09.09,0,0,0-.09-.1.09.09,0,0,0-.1.1.09.09,0,0,0,.1.09A.09.09,0,0,0,10.12,15.8Z"/><path class="fcc3b196-8eb2-4aff-99c9-ac7d4e8d9efd" d="M10.12,15a.09.09,0,0,0-.09-.09.09.09,0,0,0-.1.09.1.1,0,0,0,.1.1A.1.1,0,0,0,10.12,15Z"/><path class="fcc3b196-8eb2-4aff-99c9-ac7d4e8d9efd" d="M10.11,14.25a.09.09,0,0,0-.08-.09.09.09,0,0,0,0,.18A.09.09,0,0,0,10.11,14.25Z"/><path class="fcc3b196-8eb2-4aff-99c9-ac7d4e8d9efd" d="M10.11,13.48a.09.09,0,0,0-.08-.09.09.09,0,0,0-.09.09.09.09,0,0,0,.09.08A.09.09,0,0,0,10.11,13.48Z"/><path class="fcc3b196-8eb2-4aff-99c9-ac7d4e8d9efd" d="M10.1,12.7a.07.07,0,0,0-.07-.07.07.07,0,0,0-.08.07.08.08,0,0,0,.08.08A.08.08,0,0,0,10.1,12.7Z"/><circle class="fcc3b196-8eb2-4aff-99c9-ac7d4e8d9efd" cx="10.03" cy="11.93" r="0.07"/><path class="fcc3b196-8eb2-4aff-99c9-ac7d4e8d9efd" d="M10.09,11.16A.06.06,0,0,0,10,11.1s-.07,0-.07.06a.07.07,0,0,0,.07.06A.06.06,0,0,0,10.09,11.16Z"/><path class="fcc3b196-8eb2-4aff-99c9-ac7d4e8d9efd" d="M10.08,10.38a0,0,0,0,0-.05-.05s-.06,0-.06.05a.06.06,0,0,0,.06.06A.06.06,0,0,0,10.08,10.38Z"/><path class="fcc3b196-8eb2-4aff-99c9-ac7d4e8d9efd" d="M10.07,9.61a0,0,0,0,0,0,0,.05.05,0,0,0,0,.1A0,0,0,0,0,10.07,9.61Z"/><path class="fcc3b196-8eb2-4aff-99c9-ac7d4e8d9efd" d="M10.07,8.84a0,0,0,0,0,0,0s0,0,0,0a0,0,0,0,0,0,0A0,0,0,0,0,10.07,8.84Z"/><path class="fcc3b196-8eb2-4aff-99c9-ac7d4e8d9efd" d="M10.06,8.06a0,0,0,0,0,0,0s0,0,0,0,0,0,0,0S10.06,8.09,10.06,8.06Z"/><path class="fcc3b196-8eb2-4aff-99c9-ac7d4e8d9efd" d="M10.06,7.29a0,0,0,0,0,0,0s0,0,0,0,0,0,0,0A0,0,0,0,0,10.06,7.29Z"/><path class="fcc3b196-8eb2-4aff-99c9-ac7d4e8d9efd" d="M10.05,6.52s0,0,0,0a0,0,0,0,0,0,0s0,0,0,0A0,0,0,0,0,10.05,6.52Z"/><path class="fcc3b196-8eb2-4aff-99c9-ac7d4e8d9efd" d="M10,5.75s0,0,0,0,0,0,0,0h0Z"/><path class="fcc3b196-8eb2-4aff-99c9-ac7d4e8d9efd" d="M10,5h0a0,0,0,0,0,0,0A0,0,0,0,0,10,5Z"/><path class="fcc3b196-8eb2-4aff-99c9-ac7d4e8d9efd" d="M10,4.2h0Z"/><polygon class="fcc3b196-8eb2-4aff-99c9-ac7d4e8d9efd" points="10.03 3.43 10.03 3.42 10.02 3.43 10.03 3.43 10.03 3.43"/><circle class="fcc3b196-8eb2-4aff-99c9-ac7d4e8d9efd" cx="10.8" cy="29.71" r="0.11"/><circle class="fcc3b196-8eb2-4aff-99c9-ac7d4e8d9efd" cx="10.8" cy="28.94" r="0.11"/><path class="fcc3b196-8eb2-4aff-99c9-ac7d4e8d9efd" d="M10.91,28.16a.11.11,0,0,0-.22,0,.11.11,0,1,0,.22,0Z"/><circle class="fcc3b196-8eb2-4aff-99c9-ac7d4e8d9efd" cx="10.8" cy="27.39" r="0.11"/><circle class="fcc3b196-8eb2-4aff-99c9-ac7d4e8d9efd" cx="10.8" cy="26.62" r="0.11"/><circle class="fcc3b196-8eb2-4aff-99c9-ac7d4e8d9efd" cx="10.8" cy="25.85" r="0.11"/><path class="fcc3b196-8eb2-4aff-99c9-ac7d4e8d9efd" d="M10.91,25.07a.11.11,0,0,0-.22,0,.11.11,0,1,0,.22,0Z"/><circle class="fcc3b196-8eb2-4aff-99c9-ac7d4e8d9efd" cx="10.8" cy="24.3" r="0.11"/><path class="fcc3b196-8eb2-4aff-99c9-ac7d4e8d9efd" d="M10.91,23.53a.11.11,0,1,0-.11.11A.11.11,0,0,0,10.91,23.53Z"/><path class="fcc3b196-8eb2-4aff-99c9-ac7d4e8d9efd" d="M10.91,22.75a.11.11,0,1,0-.11.11A.11.11,0,0,0,10.91,22.75Z"/><path class="fcc3b196-8eb2-4aff-99c9-ac7d4e8d9efd" d="M10.91,22a.11.11,0,1,0-.11.11A.11.11,0,0,0,10.91,22Z"/><path class="fcc3b196-8eb2-4aff-99c9-ac7d4e8d9efd" d="M10.91,21.21a.11.11,0,1,0-.11.11A.11.11,0,0,0,10.91,21.21Z"/><path class="fcc3b196-8eb2-4aff-99c9-ac7d4e8d9efd" d="M10.91,20.43a.11.11,0,1,0-.11.11A.11.11,0,0,0,10.91,20.43Z"/><path class="fcc3b196-8eb2-4aff-99c9-ac7d4e8d9efd" d="M10.91,19.66a.11.11,0,1,0-.11.11A.11.11,0,0,0,10.91,19.66Z"/><path class="fcc3b196-8eb2-4aff-99c9-ac7d4e8d9efd" d="M10.91,18.89a.11.11,0,1,0-.11.11A.11.11,0,0,0,10.91,18.89Z"/><path class="fcc3b196-8eb2-4aff-99c9-ac7d4e8d9efd" d="M10.91,18.11a.11.11,0,0,0-.22,0,.11.11,0,0,0,.22,0Z"/><path class="fcc3b196-8eb2-4aff-99c9-ac7d4e8d9efd" d="M10.91,17.34a.11.11,0,1,0-.11.11A.11.11,0,0,0,10.91,17.34Z"/><path class="fcc3b196-8eb2-4aff-99c9-ac7d4e8d9efd" d="M10.9,16.57a.1.1,0,0,0-.1-.11.11.11,0,0,0-.11.11.1.1,0,0,0,.11.1A.09.09,0,0,0,10.9,16.57Z"/><circle class="fcc3b196-8eb2-4aff-99c9-ac7d4e8d9efd" cx="10.8" cy="15.8" r="0.1"/><path class="fcc3b196-8eb2-4aff-99c9-ac7d4e8d9efd" d="M10.89,15a.09.09,0,0,0-.09-.09.1.1,0,0,0-.1.09.11.11,0,0,0,.1.1A.1.1,0,0,0,10.89,15Z"/><path class="fcc3b196-8eb2-4aff-99c9-ac7d4e8d9efd" d="M10.89,14.25a.09.09,0,1,0-.09.09A.09.09,0,0,0,10.89,14.25Z"/><path class="fcc3b196-8eb2-4aff-99c9-ac7d4e8d9efd" d="M10.88,13.48a.09.09,0,0,0-.08-.09.08.08,0,0,0-.08.09.08.08,0,0,0,.08.08A.09.09,0,0,0,10.88,13.48Z"/><path class="fcc3b196-8eb2-4aff-99c9-ac7d4e8d9efd" d="M10.87,12.7a.07.07,0,0,0-.07-.07.08.08,0,0,0-.08.07.09.09,0,0,0,.08.08A.08.08,0,0,0,10.87,12.7Z"/><circle class="fcc3b196-8eb2-4aff-99c9-ac7d4e8d9efd" cx="10.8" cy="11.93" r="0.07"/><path class="fcc3b196-8eb2-4aff-99c9-ac7d4e8d9efd" d="M10.86,11.16a.06.06,0,0,0-.06-.06.05.05,0,0,0-.06.06.06.06,0,0,0,.06.06A.06.06,0,0,0,10.86,11.16Z"/><path class="fcc3b196-8eb2-4aff-99c9-ac7d4e8d9efd" d="M10.85,10.38a0,0,0,0,0,0-.05.06.06,0,0,0-.06.05.06.06,0,0,0,.06.06A.06.06,0,0,0,10.85,10.38Z"/><circle class="fcc3b196-8eb2-4aff-99c9-ac7d4e8d9efd" cx="10.8" cy="9.61" r="0.05"/><path class="fcc3b196-8eb2-4aff-99c9-ac7d4e8d9efd" d="M10.84,8.84a0,0,0,0,0,0,0s0,0,0,0a0,0,0,0,0,0,0A0,0,0,0,0,10.84,8.84Z"/><path class="fcc3b196-8eb2-4aff-99c9-ac7d4e8d9efd" d="M10.84,8.06s0,0,0,0,0,0,0,0a0,0,0,1,0,.08,0Z"/><path class="fcc3b196-8eb2-4aff-99c9-ac7d4e8d9efd" d="M10.83,7.29a0,0,0,1,0-.06,0,0,0,0,0,0,.06,0A0,0,0,0,0,10.83,7.29Z"/><path class="fcc3b196-8eb2-4aff-99c9-ac7d4e8d9efd" d="M10.82,6.52s0,0,0,0a0,0,0,0,0,0,0s0,0,0,0A0,0,0,0,0,10.82,6.52Z"/><circle class="fcc3b196-8eb2-4aff-99c9-ac7d4e8d9efd" cx="10.8" cy="5.75" r="0.02"/><path class="fcc3b196-8eb2-4aff-99c9-ac7d4e8d9efd" d="M10.81,5h0s0,0,0,0S10.81,5,10.81,5Z"/><path class="fcc3b196-8eb2-4aff-99c9-ac7d4e8d9efd" d="M10.81,4.2h0Z"/><polygon class="fcc3b196-8eb2-4aff-99c9-ac7d4e8d9efd" points="10.8 3.43 10.8 3.42 10.8 3.43 10.8 3.43 10.8 3.43"/><path class="fcc3b196-8eb2-4aff-99c9-ac7d4e8d9efd" d="M11.68,29.71a.11.11,0,1,0-.11.11A.11.11,0,0,0,11.68,29.71Z"/><path class="fcc3b196-8eb2-4aff-99c9-ac7d4e8d9efd" d="M11.68,28.94a.11.11,0,1,0-.11.11A.11.11,0,0,0,11.68,28.94Z"/><path class="fcc3b196-8eb2-4aff-99c9-ac7d4e8d9efd" d="M11.68,28.16a.11.11,0,0,0-.22,0,.11.11,0,1,0,.22,0Z"/><path class="fcc3b196-8eb2-4aff-99c9-ac7d4e8d9efd" d="M11.68,27.39a.11.11,0,1,0-.11.11A.11.11,0,0,0,11.68,27.39Z"/><path class="fcc3b196-8eb2-4aff-99c9-ac7d4e8d9efd" d="M11.68,26.62a.11.11,0,1,0-.11.11A.11.11,0,0,0,11.68,26.62Z"/><path class="fcc3b196-8eb2-4aff-99c9-ac7d4e8d9efd" d="M11.68,25.85a.11.11,0,0,0-.22,0,.11.11,0,0,0,.22,0Z"/><path class="fcc3b196-8eb2-4aff-99c9-ac7d4e8d9efd" d="M11.68,25.07a.11.11,0,0,0-.22,0,.11.11,0,0,0,.22,0Z"/><path class="fcc3b196-8eb2-4aff-99c9-ac7d4e8d9efd" d="M11.68,24.3a.11.11,0,1,0-.11.11A.11.11,0,0,0,11.68,24.3Z"/><circle class="fcc3b196-8eb2-4aff-99c9-ac7d4e8d9efd" cx="11.57" cy="23.53" r="0.11"/><circle class="fcc3b196-8eb2-4aff-99c9-ac7d4e8d9efd" cx="11.57" cy="22.75" r="0.11"/><path class="fcc3b196-8eb2-4aff-99c9-ac7d4e8d9efd" d="M11.68,22a.11.11,0,1,0-.11.11A.11.11,0,0,0,11.68,22Z"/><path class="fcc3b196-8eb2-4aff-99c9-ac7d4e8d9efd" d="M11.68,21.21a.11.11,0,1,0-.11.11A.11.11,0,0,0,11.68,21.21Z"/><circle class="fcc3b196-8eb2-4aff-99c9-ac7d4e8d9efd" cx="11.57" cy="20.43" r="0.11"/><circle class="fcc3b196-8eb2-4aff-99c9-ac7d4e8d9efd" cx="11.57" cy="19.66" r="0.11"/><path class="fcc3b196-8eb2-4aff-99c9-ac7d4e8d9efd" d="M11.68,18.89a.11.11,0,1,0-.11.11A.11.11,0,0,0,11.68,18.89Z"/><path class="fcc3b196-8eb2-4aff-99c9-ac7d4e8d9efd" d="M11.68,18.11a.11.11,0,0,0-.22,0,.11.11,0,0,0,.22,0Z"/><path class="fcc3b196-8eb2-4aff-99c9-ac7d4e8d9efd" d="M11.68,17.34a.11.11,0,1,0-.11.11A.11.11,0,0,0,11.68,17.34Z"/><circle class="fcc3b196-8eb2-4aff-99c9-ac7d4e8d9efd" cx="11.57" cy="16.57" r="0.1"/><circle class="fcc3b196-8eb2-4aff-99c9-ac7d4e8d9efd" cx="11.57" cy="15.8" r="0.1"/><path class="fcc3b196-8eb2-4aff-99c9-ac7d4e8d9efd" d="M11.67,15a.1.1,0,0,0-.1-.09.09.09,0,0,0-.09.09.1.1,0,0,0,.09.1A.11.11,0,0,0,11.67,15Z"/><circle class="fcc3b196-8eb2-4aff-99c9-ac7d4e8d9efd" cx="11.57" cy="14.25" r="0.09"/><path class="fcc3b196-8eb2-4aff-99c9-ac7d4e8d9efd" d="M11.65,13.48a.08.08,0,0,0-.08-.09.09.09,0,0,0-.08.09.09.09,0,0,0,.08.08A.08.08,0,0,0,11.65,13.48Z"/><circle class="fcc3b196-8eb2-4aff-99c9-ac7d4e8d9efd" cx="11.57" cy="12.7" r="0.07"/><circle class="fcc3b196-8eb2-4aff-99c9-ac7d4e8d9efd" cx="11.57" cy="11.93" r="0.07"/><path class="fcc3b196-8eb2-4aff-99c9-ac7d4e8d9efd" d="M11.63,11.16a.05.05,0,0,0-.06-.06.06.06,0,0,0-.06.06.06.06,0,0,0,.06.06A.06.06,0,0,0,11.63,11.16Z"/><path class="fcc3b196-8eb2-4aff-99c9-ac7d4e8d9efd" d="M11.63,10.38a.06.06,0,0,0-.06-.05,0,0,0,0,0-.05.05.06.06,0,0,0,.05.06A.06.06,0,0,0,11.63,10.38Z"/><circle class="fcc3b196-8eb2-4aff-99c9-ac7d4e8d9efd" cx="11.57" cy="9.61" r="0.05"/><circle class="fcc3b196-8eb2-4aff-99c9-ac7d4e8d9efd" cx="11.57" cy="8.84" r="0.04"/><path class="fcc3b196-8eb2-4aff-99c9-ac7d4e8d9efd" d="M11.61,8.06s0,0,0,0,0,0,0,0a0,0,0,1,0,.08,0Z"/><path class="fcc3b196-8eb2-4aff-99c9-ac7d4e8d9efd" d="M11.6,7.29a0,0,0,1,0-.06,0,0,0,0,0,0,.06,0A0,0,0,0,0,11.6,7.29Z"/><circle class="fcc3b196-8eb2-4aff-99c9-ac7d4e8d9efd" cx="11.57" cy="6.52" r="0.03"/><circle class="fcc3b196-8eb2-4aff-99c9-ac7d4e8d9efd" cx="11.57" cy="5.75" r="0.02"/><path class="fcc3b196-8eb2-4aff-99c9-ac7d4e8d9efd" d="M11.58,5h0s0,0,0,0S11.58,5,11.58,5Z"/><path class="fcc3b196-8eb2-4aff-99c9-ac7d4e8d9efd" d="M11.58,4.2h0Z"/><polygon class="fcc3b196-8eb2-4aff-99c9-ac7d4e8d9efd" points="11.57 3.43 11.57 3.42 11.57 3.43 11.57 3.43 11.57 3.43"/><circle class="fcc3b196-8eb2-4aff-99c9-ac7d4e8d9efd" cx="12.34" cy="29.71" r="0.11"/><circle class="fcc3b196-8eb2-4aff-99c9-ac7d4e8d9efd" cx="12.34" cy="28.94" r="0.11"/><path class="fcc3b196-8eb2-4aff-99c9-ac7d4e8d9efd" d="M12.45,28.16a.11.11,0,0,0-.11-.1.11.11,0,0,0-.1.1.11.11,0,0,0,.1.11A.11.11,0,0,0,12.45,28.16Z"/><circle class="fcc3b196-8eb2-4aff-99c9-ac7d4e8d9efd" cx="12.34" cy="27.39" r="0.11"/><circle class="fcc3b196-8eb2-4aff-99c9-ac7d4e8d9efd" cx="12.34" cy="26.62" r="0.11"/><circle class="fcc3b196-8eb2-4aff-99c9-ac7d4e8d9efd" cx="12.34" cy="25.85" r="0.11"/><path class="fcc3b196-8eb2-4aff-99c9-ac7d4e8d9efd" d="M12.45,25.07a.1.1,0,0,0-.11-.1.1.1,0,0,0-.1.1.11.11,0,0,0,.1.11A.11.11,0,0,0,12.45,25.07Z"/><circle class="fcc3b196-8eb2-4aff-99c9-ac7d4e8d9efd" cx="12.34" cy="24.3" r="0.11"/><path class="fcc3b196-8eb2-4aff-99c9-ac7d4e8d9efd" d="M12.45,23.53a.1.1,0,0,0-.11-.11.11.11,0,0,0,0,.22A.1.1,0,0,0,12.45,23.53Z"/><path class="fcc3b196-8eb2-4aff-99c9-ac7d4e8d9efd" d="M12.45,22.75a.1.1,0,0,0-.11-.11.11.11,0,0,0,0,.22A.1.1,0,0,0,12.45,22.75Z"/><path class="fcc3b196-8eb2-4aff-99c9-ac7d4e8d9efd" d="M12.45,22a.1.1,0,0,0-.11-.11.11.11,0,0,0,0,.22A.1.1,0,0,0,12.45,22Z"/><path class="fcc3b196-8eb2-4aff-99c9-ac7d4e8d9efd" d="M12.45,21.21a.1.1,0,0,0-.11-.11.11.11,0,0,0,0,.22A.1.1,0,0,0,12.45,21.21Z"/><path class="fcc3b196-8eb2-4aff-99c9-ac7d4e8d9efd" d="M12.45,20.43a.1.1,0,0,0-.11-.11.11.11,0,0,0,0,.22A.1.1,0,0,0,12.45,20.43Z"/><path class="fcc3b196-8eb2-4aff-99c9-ac7d4e8d9efd" d="M12.45,19.66a.1.1,0,0,0-.11-.11.11.11,0,0,0,0,.22A.1.1,0,0,0,12.45,19.66Z"/><path class="fcc3b196-8eb2-4aff-99c9-ac7d4e8d9efd" d="M12.45,18.89a.1.1,0,0,0-.11-.11.11.11,0,0,0,0,.22A.1.1,0,0,0,12.45,18.89Z"/><path class="fcc3b196-8eb2-4aff-99c9-ac7d4e8d9efd" d="M12.45,18.11a.1.1,0,0,0-.11-.1.09.09,0,0,0-.1.1.1.1,0,0,0,.1.11A.1.1,0,0,0,12.45,18.11Z"/><path class="fcc3b196-8eb2-4aff-99c9-ac7d4e8d9efd" d="M12.45,17.34a.1.1,0,0,0-.11-.11.11.11,0,0,0,0,.22A.1.1,0,0,0,12.45,17.34Z"/><path class="fcc3b196-8eb2-4aff-99c9-ac7d4e8d9efd" d="M12.45,16.57a.11.11,0,0,0-.11-.11.11.11,0,0,0-.1.11.1.1,0,0,0,.1.1A.1.1,0,0,0,12.45,16.57Z"/><circle class="fcc3b196-8eb2-4aff-99c9-ac7d4e8d9efd" cx="12.34" cy="15.8" r="0.1"/><path class="fcc3b196-8eb2-4aff-99c9-ac7d4e8d9efd" d="M12.44,15a.09.09,0,0,0-.1-.09.09.09,0,0,0-.09.09.1.1,0,0,0,.09.1A.1.1,0,0,0,12.44,15Z"/><circle class="fcc3b196-8eb2-4aff-99c9-ac7d4e8d9efd" cx="12.34" cy="14.25" r="0.09"/><path class="fcc3b196-8eb2-4aff-99c9-ac7d4e8d9efd" d="M12.43,13.48a.09.09,0,0,0-.09-.09.09.09,0,0,0-.08.09.09.09,0,0,0,.08.08A.09.09,0,0,0,12.43,13.48Z"/><circle class="fcc3b196-8eb2-4aff-99c9-ac7d4e8d9efd" cx="12.34" cy="12.7" r="0.07"/><circle class="fcc3b196-8eb2-4aff-99c9-ac7d4e8d9efd" cx="12.34" cy="11.93" r="0.07"/><path class="fcc3b196-8eb2-4aff-99c9-ac7d4e8d9efd" d="M12.41,11.16s0-.06-.07-.06a.06.06,0,0,0-.06.06.06.06,0,0,0,.06.06A.07.07,0,0,0,12.41,11.16Z"/><path class="fcc3b196-8eb2-4aff-99c9-ac7d4e8d9efd" d="M12.4,10.38s0-.05-.06-.05a0,0,0,0,0-.05.05.06.06,0,0,0,.05.06A.06.06,0,0,0,12.4,10.38Z"/><path class="fcc3b196-8eb2-4aff-99c9-ac7d4e8d9efd" d="M12.39,9.61a0,0,0,0,0-.05,0,.05.05,0,0,0,0,.1A0,0,0,0,0,12.39,9.61Z"/><circle class="fcc3b196-8eb2-4aff-99c9-ac7d4e8d9efd" cx="12.34" cy="8.84" r="0.04"/><path class="fcc3b196-8eb2-4aff-99c9-ac7d4e8d9efd" d="M12.38,8.06s0,0,0,0a0,0,0,0,0,0,0s0,0,0,0S12.38,8.09,12.38,8.06Z"/><path class="fcc3b196-8eb2-4aff-99c9-ac7d4e8d9efd" d="M12.38,7.29s0,0,0,0a0,0,0,1,0,0,.06S12.38,7.31,12.38,7.29Z"/><path class="fcc3b196-8eb2-4aff-99c9-ac7d4e8d9efd" d="M12.37,6.52a0,0,0,0,0,0,0s0,0,0,0a0,0,0,0,0,0,0S12.37,6.53,12.37,6.52Z"/><path class="fcc3b196-8eb2-4aff-99c9-ac7d4e8d9efd" d="M12.36,5.75s0,0,0,0,0,0,0,0h0Z"/><path class="fcc3b196-8eb2-4aff-99c9-ac7d4e8d9efd" d="M12.36,5h0a0,0,0,0,0,0,0A0,0,0,0,0,12.36,5Z"/><path class="fcc3b196-8eb2-4aff-99c9-ac7d4e8d9efd" d="M12.35,4.2h0Z"/><polygon class="fcc3b196-8eb2-4aff-99c9-ac7d4e8d9efd" points="12.35 3.43 12.35 3.42 12.34 3.43 12.35 3.43 12.35 3.43"/><path class="fcc3b196-8eb2-4aff-99c9-ac7d4e8d9efd" d="M13.2,29.71a.09.09,0,0,0-.08-.08.08.08,0,0,0-.08.08.07.07,0,0,0,.08.08A.08.08,0,0,0,13.2,29.71Z"/><path class="fcc3b196-8eb2-4aff-99c9-ac7d4e8d9efd" d="M13.2,28.94a.08.08,0,0,0-.08-.08.07.07,0,0,0-.08.08.08.08,0,0,0,.08.08A.09.09,0,0,0,13.2,28.94Z"/><path class="fcc3b196-8eb2-4aff-99c9-ac7d4e8d9efd" d="M13.2,28.16a.09.09,0,0,0-.08-.08.08.08,0,0,0-.08.08.08.08,0,0,0,.08.09A.09.09,0,0,0,13.2,28.16Z"/><path class="fcc3b196-8eb2-4aff-99c9-ac7d4e8d9efd" d="M13.2,27.39a.09.09,0,0,0-.08-.08.08.08,0,0,0-.08.08.07.07,0,0,0,.08.08A.08.08,0,0,0,13.2,27.39Z"/><path class="fcc3b196-8eb2-4aff-99c9-ac7d4e8d9efd" d="M13.2,26.62a.08.08,0,0,0-.08-.08.07.07,0,0,0-.08.08.08.08,0,0,0,.08.08A.09.09,0,0,0,13.2,26.62Z"/><path class="fcc3b196-8eb2-4aff-99c9-ac7d4e8d9efd" d="M13.2,25.85a.08.08,0,0,0-.08-.08.07.07,0,0,0-.08.08.07.07,0,0,0,.08.07A.08.08,0,0,0,13.2,25.85Z"/><path class="fcc3b196-8eb2-4aff-99c9-ac7d4e8d9efd" d="M13.2,25.07a.09.09,0,0,0-.08-.08.08.08,0,0,0-.08.08.07.07,0,0,0,.08.08A.08.08,0,0,0,13.2,25.07Z"/><path class="fcc3b196-8eb2-4aff-99c9-ac7d4e8d9efd" d="M13.2,24.3a.09.09,0,0,0-.08-.08.08.08,0,0,0,0,.16A.09.09,0,0,0,13.2,24.3Z"/><path class="fcc3b196-8eb2-4aff-99c9-ac7d4e8d9efd" d="M13.2,23.53a.08.08,0,0,0-.08-.08.07.07,0,0,0-.08.08.08.08,0,0,0,.08.08A.09.09,0,0,0,13.2,23.53Z"/><path class="fcc3b196-8eb2-4aff-99c9-ac7d4e8d9efd" d="M13.2,22.75a.09.09,0,0,0-.08-.08.08.08,0,0,0-.08.08.07.07,0,0,0,.08.08A.08.08,0,0,0,13.2,22.75Z"/><path class="fcc3b196-8eb2-4aff-99c9-ac7d4e8d9efd" d="M13.19,22a.08.08,0,0,0-.07-.08.08.08,0,0,0,0,.16A.08.08,0,0,0,13.19,22Z"/><path class="fcc3b196-8eb2-4aff-99c9-ac7d4e8d9efd" d="M13.19,21.21a.07.07,0,0,0-.07-.08.08.08,0,0,0-.08.08.08.08,0,0,0,.08.07A.07.07,0,0,0,13.19,21.21Z"/><path class="fcc3b196-8eb2-4aff-99c9-ac7d4e8d9efd" d="M13.19,20.43a.07.07,0,0,0-.07-.07.08.08,0,0,0-.08.07.08.08,0,0,0,.08.08A.07.07,0,0,0,13.19,20.43Z"/><path class="fcc3b196-8eb2-4aff-99c9-ac7d4e8d9efd" d="M13.19,19.66a.08.08,0,0,0-.07-.08.08.08,0,0,0,0,.16A.08.08,0,0,0,13.19,19.66Z"/><path class="fcc3b196-8eb2-4aff-99c9-ac7d4e8d9efd" d="M13.19,18.89a.08.08,0,0,0-.07-.08.09.09,0,0,0-.08.08.08.08,0,0,0,.08.07A.07.07,0,0,0,13.19,18.89Z"/><path class="fcc3b196-8eb2-4aff-99c9-ac7d4e8d9efd" d="M13.19,18.11a.07.07,0,0,0-.07-.07.08.08,0,0,0-.08.07.08.08,0,0,0,.08.08A.07.07,0,0,0,13.19,18.11Z"/><path class="fcc3b196-8eb2-4aff-99c9-ac7d4e8d9efd" d="M13.19,17.34a.07.07,0,0,0-.07-.07.08.08,0,0,0-.08.07.09.09,0,0,0,.08.08A.08.08,0,0,0,13.19,17.34Z"/><path class="fcc3b196-8eb2-4aff-99c9-ac7d4e8d9efd" d="M13.19,16.57a.07.07,0,0,0-.07-.07.07.07,0,1,0,0,.14A.07.07,0,0,0,13.19,16.57Z"/><path class="fcc3b196-8eb2-4aff-99c9-ac7d4e8d9efd" d="M13.19,15.8a.07.07,0,0,0-.14,0,.07.07,0,0,0,.14,0Z"/><path class="fcc3b196-8eb2-4aff-99c9-ac7d4e8d9efd" d="M13.18,15a.06.06,0,0,0-.06-.06.07.07,0,0,0-.07.06.07.07,0,0,0,.07.07A.07.07,0,0,0,13.18,15Z"/><path class="fcc3b196-8eb2-4aff-99c9-ac7d4e8d9efd" d="M13.18,14.25a.06.06,0,0,0-.06-.06.06.06,0,1,0,0,.12A.06.06,0,0,0,13.18,14.25Z"/><path class="fcc3b196-8eb2-4aff-99c9-ac7d4e8d9efd" d="M13.17,13.48a.06.06,0,0,0-.05-.06.06.06,0,0,0-.06.06.06.06,0,0,0,.06,0A0,0,0,0,0,13.17,13.48Z"/><path class="fcc3b196-8eb2-4aff-99c9-ac7d4e8d9efd" d="M13.17,12.7a0,0,0,1,0-.05.05A0,0,0,0,0,13.17,12.7Z"/><path class="fcc3b196-8eb2-4aff-99c9-ac7d4e8d9efd" d="M13.16,11.93a0,0,0,0,0,0,0,.05.05,0,0,0,0,.1A0,0,0,0,0,13.16,11.93Z"/><path class="fcc3b196-8eb2-4aff-99c9-ac7d4e8d9efd" d="M13.16,11.16a0,0,0,0,0,0-.05,0,0,0,0,0,0,.05,0,0,0,0,0,0,0A0,0,0,0,0,13.16,11.16Z"/><path class="fcc3b196-8eb2-4aff-99c9-ac7d4e8d9efd" d="M13.16,10.38s0,0,0,0,0,0,0,0a0,0,0,0,0,.08,0Z"/><circle class="fcc3b196-8eb2-4aff-99c9-ac7d4e8d9efd" cx="13.12" cy="9.61" r="0.03"/><circle class="fcc3b196-8eb2-4aff-99c9-ac7d4e8d9efd" cx="13.12" cy="8.84" r="0.03"/><path class="fcc3b196-8eb2-4aff-99c9-ac7d4e8d9efd" d="M13.14,8.06a0,0,0,0,0,0,0s0,0,0,0a0,0,0,0,0,0,0S13.14,8.08,13.14,8.06Z"/><path class="fcc3b196-8eb2-4aff-99c9-ac7d4e8d9efd" d="M13.14,7.29a0,0,0,0,0,0,0l0,0,0,0A0,0,0,0,0,13.14,7.29Z"/><path class="fcc3b196-8eb2-4aff-99c9-ac7d4e8d9efd" d="M13.13,6.52s0,0,0,0l0,0a0,0,0,0,0,0,0S13.13,6.53,13.13,6.52Z"/><path class="fcc3b196-8eb2-4aff-99c9-ac7d4e8d9efd" d="M13.13,5.75v0l0,0h0Z"/><path class="fcc3b196-8eb2-4aff-99c9-ac7d4e8d9efd" d="M13.13,5h0s0,0,0,0A0,0,0,0,0,13.13,5Z"/><polygon class="fcc3b196-8eb2-4aff-99c9-ac7d4e8d9efd" points="13.12 4.2 13.12 4.2 13.11 4.2 13.12 4.2 13.12 4.2"/></g></g></g></g></svg>