<svg id="b07eca00-3e1b-4912-bbf2-cd607b1c04bd" data-name="Layer 1" xmlns="http://www.w3.org/2000/svg" xmlns:xlink="http://www.w3.org/1999/xlink" viewBox="0 0 28.35 28.35"><defs><style>.fff74a99-60ea-4fd6-a52e-fdd7f4fc9bdf{fill:url(#f572406b-902b-4bc5-b9d7-1673bbba2df4);}.fdd015c4-55a8-448e-85e3-88baf34b2260{fill:url(#f1ca66e6-7d58-453f-874d-ae6f1ba3ed1e);}.ea06479a-dd13-4af4-8912-0aee4bc29781{fill:url(#f78ea78f-08ef-4508-a9e7-e6c51f1404d0);}.bf0325ab-8304-4359-8a41-626af462fa12{fill:url(#abf69bd9-09bf-4d7b-b5fe-4bf858ae6228);}.ad8c7d18-dec0-4dfb-af2b-a6ecd491569d{fill:url(#e10305c1-8e24-4fdb-966a-720c0bc0f3a2);}.bbbeb1bc-9f31-47d3-b1c5-ed5afb034757{fill:url(#e640b148-6106-4518-95f3-906decefa479);}.b7d7b4aa-c85d-4c44-b339-eb4b95b90063{fill:url(#b5b75c09-beb0-4ed2-bf59-6802f6694ff4);}.f6b75e11-9ecb-406a-86ac-3ebfa5a5b541{fill:url(#be1b435b-d62d-4320-9f3a-259a28cffe1b);}.edacfa6e-f4b8-4379-bb1b-bf3c0191b652{fill:url(#bcc81324-a227-4063-80a9-4e0ec561f82d);}.f6300005-937e-4b6f-93c5-5648d7dfac51{fill:#3157a4;}.e697d5c0-39e1-4838-ac8c-f65873d3f0c9{fill:url(#a4f453ce-9831-415b-8125-ed30caedcf93);}.b7dfd165-4b0b-4483-9ee5-42963add1806{font-size:2.65px;letter-spacing:0.01em;}.b7dfd165-4b0b-4483-9ee5-42963add1806,.f799d9be-5616-42fe-99c0-4d64f3ca6154{fill:#3468b1;stroke:#3468b1;stroke-miterlimit:10;stroke-width:0.1px;font-family:MicrosoftSansSerif, Microsoft Sans Serif;}.f799d9be-5616-42fe-99c0-4d64f3ca6154{font-size:1.45px;letter-spacing:0.08em;}</style><linearGradient id="f572406b-902b-4bc5-b9d7-1673bbba2df4" x1="2.3" y1="11.75" x2="13.68" y2="11.75" gradientUnits="userSpaceOnUse"><stop offset="0" stop-color="#37b8eb"/><stop offset="0.09" stop-color="#35a4dc"/><stop offset="0.24" stop-color="#3385c5"/><stop offset="0.41" stop-color="#316db4"/><stop offset="0.58" stop-color="#2f5ba7"/><stop offset="0.77" stop-color="#2e519f"/><stop offset="1" stop-color="#2e4e9d"/></linearGradient><linearGradient id="f1ca66e6-7d58-453f-874d-ae6f1ba3ed1e" x1="3.52" y1="11.62" x2="13.68" y2="11.62" gradientUnits="userSpaceOnUse"><stop offset="0" stop-color="#2e4e9d"/><stop offset="0.2" stop-color="#2e52a0"/><stop offset="0.39" stop-color="#2f5ea9"/><stop offset="0.58" stop-color="#3171b7"/><stop offset="0.78" stop-color="#338dcb"/><stop offset="0.96" stop-color="#36b0e5"/><stop offset="1" stop-color="#37b8eb"/></linearGradient><linearGradient id="f78ea78f-08ef-4508-a9e7-e6c51f1404d0" x1="-58.55" y1="17.53" x2="-58.4" y2="5.85" gradientTransform="matrix(-1, 0, 0, 1, -38.08, 0)" gradientUnits="userSpaceOnUse"><stop offset="0" stop-color="#37b8eb"/><stop offset="0.08" stop-color="#35a5dd"/><stop offset="0.24" stop-color="#3386c6"/><stop offset="0.41" stop-color="#316db4"/><stop offset="0.59" stop-color="#2f5ca7"/><stop offset="0.77" stop-color="#2e519f"/><stop offset="1" stop-color="#2e4e9d"/></linearGradient><linearGradient id="abf69bd9-09bf-4d7b-b5fe-4bf858ae6228" x1="-62.91" y1="11.62" x2="-52.74" y2="11.62" gradientTransform="matrix(-1, 0, 0, 1, -38.08, 0)" gradientUnits="userSpaceOnUse"><stop offset="0" stop-color="#37b8eb"/><stop offset="0.01" stop-color="#37b3e8"/><stop offset="0.12" stop-color="#3494d1"/><stop offset="0.24" stop-color="#327abe"/><stop offset="0.36" stop-color="#3067af"/><stop offset="0.51" stop-color="#2f59a5"/><stop offset="0.69" stop-color="#2e509f"/><stop offset="1" stop-color="#2e4e9d"/></linearGradient><linearGradient id="e10305c1-8e24-4fdb-966a-720c0bc0f3a2" x1="-61.81" y1="3.17" x2="-51.08" y2="3.17" gradientTransform="translate(70.85)" gradientUnits="userSpaceOnUse"><stop offset="0" stop-color="#37b8eb"/><stop offset="0" stop-color="#37b7ea"/><stop offset="0.12" stop-color="#3497d3"/><stop offset="0.24" stop-color="#327cbf"/><stop offset="0.38" stop-color="#3068b0"/><stop offset="0.53" stop-color="#2f59a5"/><stop offset="0.71" stop-color="#2e519f"/><stop offset="1" stop-color="#2e4e9d"/></linearGradient><linearGradient id="e640b148-6106-4518-95f3-906decefa479" x1="-56.57" y1="4.33" x2="-48.41" y2="4.33" gradientTransform="matrix(-1, 0, 0, 1, -38.08, 0)" gradientUnits="userSpaceOnUse"><stop offset="0" stop-color="#37b8eb"/><stop offset="0.02" stop-color="#36b0e5"/><stop offset="0.12" stop-color="#3492cf"/><stop offset="0.23" stop-color="#3279bd"/><stop offset="0.35" stop-color="#3066af"/><stop offset="0.49" stop-color="#2f58a5"/><stop offset="0.67" stop-color="#2e509f"/><stop offset="1" stop-color="#2e4e9d"/></linearGradient><linearGradient id="b5b75c09-beb0-4ed2-bf59-6802f6694ff4" x1="-62.1" y1="89" x2="-50.24" y2="89" gradientTransform="translate(-41.87 101.63) rotate(180)" gradientUnits="userSpaceOnUse"><stop offset="0" stop-color="#37b8eb"/><stop offset="0.04" stop-color="#35a4dc"/><stop offset="0.11" stop-color="#3389c9"/><stop offset="0.19" stop-color="#3173b9"/><stop offset="0.28" stop-color="#3062ac"/><stop offset="0.4" stop-color="#2f57a3"/><stop offset="0.56" stop-color="#2e509e"/><stop offset="1" stop-color="#2e4e9d"/></linearGradient><linearGradient id="be1b435b-d62d-4320-9f3a-259a28cffe1b" x1="-58.72" y1="90.52" x2="-46.84" y2="90.52" gradientTransform="matrix(1, 0, 0, -1, 67.06, 101.63)" gradientUnits="userSpaceOnUse"><stop offset="0" stop-color="#3154a1"/><stop offset="0.25" stop-color="#3256a2"/><stop offset="0.34" stop-color="#345da8"/><stop offset="0.41" stop-color="#3769b1"/><stop offset="0.47" stop-color="#3d7abe"/><stop offset="0.49" stop-color="#3f82c4"/><stop offset="0.52" stop-color="#3a73b9"/><stop offset="0.58" stop-color="#3562ac"/><stop offset="0.64" stop-color="#3157a3"/><stop offset="0.74" stop-color="#2f509e"/><stop offset="1" stop-color="#2e4e9d"/></linearGradient><linearGradient id="bcc81324-a227-4063-80a9-4e0ec561f82d" x1="16.92" y1="15.73" x2="16.89" y2="20.75" gradientUnits="userSpaceOnUse"><stop offset="0" stop-color="#2799d6"/><stop offset="0.25" stop-color="#2fa6df"/><stop offset="0.69" stop-color="#39b9eb"/><stop offset="1" stop-color="#3dc0f0"/></linearGradient><linearGradient id="a4f453ce-9831-415b-8125-ed30caedcf93" x1="-46.89" y1="11.85" x2="-46.89" y2="11.85" gradientTransform="matrix(-1, 0, 0, 1, -38.08, 0)" xlink:href="#f572406b-902b-4bc5-b9d7-1673bbba2df4"/></defs><polygon class="fff74a99-60ea-4fd6-a52e-fdd7f4fc9bdf" points="3.52 8.83 3.52 14.41 8.21 17.19 12.25 14.76 13.57 15.59 13.57 15.65 8.1 18.65 2.3 15.2 2.3 8.3 8.1 4.86 13.69 8.08 13.69 9.29 12.91 8.83 8.21 6.05 3.52 8.83"/><polygon class="fdd015c4-55a8-448e-85e3-88baf34b2260" points="4.88 9.9 4.83 13.64 8.06 15.51 8.08 15.5 8.21 15.58 10.87 13.98 10.92 13.95 12.25 14.76 8.21 17.19 3.52 14.41 3.52 8.83 8.21 6.05 12.91 8.83 13.69 9.29 13.69 10.8 11.38 9.52 8.21 7.66 4.88 9.64 4.88 9.9"/><polygon class="ea06479a-dd13-4af4-8912-0aee4bc29781" points="24.83 8.83 24.83 14.41 20.14 17.19 16.15 14.87 15 15.54 14.95 15.54 20.25 18.65 26.05 15.2 26.05 8.3 20.25 4.86 14.66 8.08 14.66 9.29 15.44 8.83 20.14 6.05 24.83 8.83"/><polygon class="bf0325ab-8304-4359-8a41-626af462fa12" points="23.47 9.9 23.51 13.64 20.29 15.51 20.27 15.5 20.14 15.58 17.48 14.09 17.43 14.07 16.15 14.87 20.14 17.19 24.83 14.41 24.83 8.83 20.14 6.05 15.44 8.83 14.66 9.29 14.66 10.8 16.97 9.52 20.14 7.66 23.47 9.64 23.47 9.9"/><polyline class="ad8c7d18-dec0-4dfb-af2b-a6ecd491569d" points="10.33 5.25 14.4 2.62 18.49 4.97 19.77 4.23 14.4 1.09 9.04 4.47"/><polyline class="bbbeb1bc-9f31-47d3-b1c5-ed5afb034757" points="17.09 5.79 14.4 4.22 11.72 6.05 10.33 5.25 14.4 2.62 18.49 4.97"/><polyline class="b7d7b4aa-c85d-4c44-b339-eb4b95b90063" points="20.21 10.07 14.24 13.65 8.38 10.07 8.37 11.55 14.24 15.18 20.23 11.65"/><polyline class="f6b75e11-9ecb-406a-86ac-3ebfa5a5b541" points="8.35 8.56 14.24 12.04 20.22 8.6 20.21 10.06 14.24 13.64 8.38 10.06"/><polyline class="edacfa6e-f4b8-4379-bb1b-bf3c0191b652" points="16.4 20.88 16.29 15.17 17.53 16 17.53 20.26"/><polyline class="f6300005-937e-4b6f-93c5-5648d7dfac51" points="16.27 14.82 16.4 20.88 14.88 21.78 14.89 15.54"/><line class="e697d5c0-39e1-4838-ac8c-f65873d3f0c9" x1="8.81" y1="11.83" x2="8.81" y2="11.88"/><text class="b7dfd165-4b0b-4483-9ee5-42963add1806" transform="translate(0.03 24.93)">COORDINATED CARE</text><text class="f799d9be-5616-42fe-99c0-4d64f3ca6154" transform="translate(9.76 26.89)">PARTNERS</text></svg>